<svg width="1080" height="172" fill="none" xmlns="http://www.w3.org/2000/svg">
  <g clip-path="url(#a)">
    <mask id="b" style="mask-type:alpha" maskUnits="userSpaceOnUse" x="-7626" y="-56" width="9534" height="433">
      <path d="m1908 84.68-66.21 24.36c-66.21 24.36-198.62 73.08-331.04 48.72-132.42-24.36-264.83-121.8-397.25-129.96-132.42-7.75-264.83 72.78-397.25 81.24C583.83 117.49 451.42 51.86 319 35.95 186.58 20.05 54.17 51.86-78.25 92.83c-132.42 40.57-264.83 89.29-397.25 89.29-132.42 0-264.83-48.72-397.25-89.3-132.42-40.96-264.83-72.77-397.25-105.59-132.42-32.8-264.83-64.63-397.25-24.36-132.42 40.27-264.83 154.62-397.25 178.68-132.42 24.66-264.83-40.97-397.25-81.23C-2594.17 20.05-2726.58 3.14-2859-4.61c-132.42-8.16-264.83-8.16-397.25 48.72-132.42 56.47-264.83 170.82-397.25 194.88-132.42 24.66-264.83-40.96-397.25-40.67-132.42-.3-264.83 65.33-397.25 24.36-132.42-40.56-264.83-186.72-397.25-235.45-132.42-48.72-264.83 0-397.25 48.72-132.42 48.73-264.83 97.45-397.25 105.6-132.42 7.75-264.83-24.06-397.25-32.51-132.42-8.46-264.83 8.45-397.25 24.36-132.42 15.9-264.83 32.8-397.25 56.87-132.42 24.66-264.83 56.48-397.25 32.41-132.42-24.65-264.83-105.2-331.04-146.16L-7626 35.96V377h9534V84.68Z" fill="#242229"/>
    </mask>
    <g mask="url(#b)">
      <path d="m1880 53.28-66.21 20.31c-66.21 20.31-198.62 60.93-331.04 40.62-132.42-20.3-264.83-101.55-397.25-108.34C953.08-.6 820.67 66.55 688.25 73.59 555.83 80.64 423.42 25.93 291 12.66 158.58-.6 26.17 25.93-106.25 60.08c-132.42 33.82-264.83 74.44-397.25 74.44-132.42 0-264.83-40.62-397.25-74.44C-1033.17 25.93-1165.58-.6-1298-27.95c-132.42-27.36-264.83-53.89-397.25-20.31-132.42 33.57-264.83 128.9-397.25 148.96-132.42 20.56-264.83-34.15-397.25-67.73C-2622.17-.6-2754.58-14.69-2887-21.16c-132.42-6.8-264.83-6.8-397.25 40.62-132.42 47.09-264.83 142.42-397.25 162.48-132.42 20.56-264.83-34.15-397.25-33.9-132.42-.25-264.83 54.46-397.25 20.3-132.42-33.82-264.83-155.68-397.25-196.3-132.42-40.61-264.83 0-397.25 40.62-132.42 40.62-264.83 81.24-397.25 88.04-132.42 6.47-264.83-20.06-397.25-27.1-132.42-7.05-264.83 7.04-397.25 20.3-132.42 13.27-264.83 27.36-397.25 47.42-132.42 20.56-264.83 47.09-397.25 27.03-132.42-20.56-264.83-87.71-331.04-121.86L-7654 12.66V297h9534V53.28Z" fill="url(#c)"/>
      <g opacity=".2" fill="#fff">
        <path opacity=".6" d="M280.46.9c-.16 0-.32.04-.46.1a.65.65 0 0 0-.29.27.37.37 0 0 0-.02.31c.04.1.13.2.26.27.12.08.28.12.44.14.17.01.34 0 .5-.05a.82.82 0 0 0 .36-.22.4.4 0 0 0 .11-.3.4.4 0 0 0-.08-.21.64.64 0 0 0-.2-.17 1.02 1.02 0 0 0-.29-.11c-.1-.02-.21-.03-.33-.03Zm258.3 107.08c-.1 0-.21.02-.3.04a.87.87 0 0 0-.25.12.53.53 0 0 0-.16.18.34.34 0 0 0-.05.2c0 .06.03.13.08.19.04.06.1.11.19.16a1 1 0 0 0 .26.1c.1.02.2.03.31.02a1.05 1.05 0 0 0 .55-.17c.07-.05.12-.1.16-.17a.34.34 0 0 0 .04-.2.37.37 0 0 0-.08-.19.62.62 0 0 0-.18-.16.98.98 0 0 0-.27-.1 1.2 1.2 0 0 0-.3-.02ZM239 20.62a1.2 1.2 0 0 0-.6.19.57.57 0 0 0-.17.2.37.37 0 0 0-.04.2c0 .08.04.16.09.22a.7.7 0 0 0 .2.18 1.33 1.33 0 0 0 .96.09c.1-.04.2-.08.28-.14a.57.57 0 0 0 .17-.19.37.37 0 0 0 .04-.21.41.41 0 0 0-.09-.22.67.67 0 0 0-.2-.17 1.06 1.06 0 0 0-.3-.11c-.1-.03-.22-.04-.34-.04Zm197.75 69.93c-.11 0-.22.02-.32.05a.89.89 0 0 0-.25.13.55.55 0 0 0-.17.18.36.36 0 0 0-.04.2c0 .07.03.14.08.2.05.07.11.12.2.17a1.08 1.08 0 0 0 .59.12c.12 0 .23 0 .34-.03.11-.03.2-.07.29-.12a.57.57 0 0 0 .18-.19.36.36 0 0 0 .06-.22.4.4 0 0 0-.1-.21.67.67 0 0 0-.21-.17c-.1-.05-.2-.08-.31-.1a1.28 1.28 0 0 0-.34-.01Zm187.23 75.82c-.1 0-.2.02-.3.05a.83.83 0 0 0-.24.12.5.5 0 0 0-.16.17.33.33 0 0 0-.04.2c.02.12.11.25.27.33.15.1.35.14.56.13.1 0 .2-.02.3-.05.1-.03.17-.07.24-.12a.5.5 0 0 0 .16-.17.35.35 0 0 0 .04-.2.37.37 0 0 0-.08-.18.6.6 0 0 0-.18-.16.96.96 0 0 0-.26-.1 1.2 1.2 0 0 0-.3-.02Zm-333.33-61.39c-.23.01-.45.08-.6.2-.16.1-.24.25-.23.4 0 .08.04.15.09.22.05.06.12.12.2.17a1.3 1.3 0 0 0 1.24-.05.58.58 0 0 0 .17-.19.38.38 0 0 0 .05-.22c-.01-.15-.12-.28-.3-.38a1.2 1.2 0 0 0-.62-.15ZM133.3 62.38c-.18 0-.36.05-.5.12a.68.68 0 0 0-.31.27.39.39 0 0 0-.02.34.6.6 0 0 0 .27.3 1.37 1.37 0 0 0 1 .09c.17-.06.3-.14.4-.24.09-.1.13-.22.12-.33-.02-.16-.13-.3-.3-.4-.19-.1-.42-.16-.66-.15Zm306.47 65.93a1.1 1.1 0 0 0-.58.19c-.15.1-.23.25-.22.4 0 .07.03.14.08.2a.7.7 0 0 0 .2.18 1.33 1.33 0 0 0 .62.14c.23-.01.44-.08.6-.19.14-.1.22-.25.21-.4-.01-.14-.12-.28-.29-.38a1.2 1.2 0 0 0-.62-.14ZM43.57 2.74a1.2 1.2 0 0 0-.63.2c-.17.13-.25.28-.24.44a.5.5 0 0 0 .19.32c.1.1.26.16.43.2.17.04.36.04.54.01.17-.03.33-.09.45-.18.12-.08.2-.2.23-.3a.41.41 0 0 0-.09-.35.8.8 0 0 0-.36-.25 1.35 1.35 0 0 0-.52-.09ZM287.3 164.17a1.1 1.1 0 0 0-.59.19c-.15.1-.23.25-.22.4 0 .07.04.15.09.21a.7.7 0 0 0 .2.18 1.35 1.35 0 0 0 .63.14c.24-.01.45-.08.6-.19.16-.11.23-.26.22-.4-.02-.15-.12-.29-.3-.39-.17-.1-.4-.15-.62-.14Zm-116.94-21.11c-.23.01-.44.08-.58.19-.15.1-.23.25-.21.4 0 .06.03.13.08.2.05.06.11.12.2.16.08.05.18.09.28.11a1.26 1.26 0 0 0 .91-.15.54.54 0 0 0 .17-.18.37.37 0 0 0 .05-.21.42.42 0 0 0-.09-.2.66.66 0 0 0-.2-.18 1 1 0 0 0-.28-.1 1.3 1.3 0 0 0-.33-.04ZM503.76 30.9a1.1 1.1 0 0 0-.56.19c-.15.1-.22.24-.21.38.01.14.11.27.28.36a1.16 1.16 0 0 0 1.16-.04c.15-.1.22-.24.21-.38-.01-.15-.11-.28-.28-.37-.16-.1-.38-.14-.6-.13Zm65.32 44.58c-.17 0-.33.04-.47.1a.64.64 0 0 0-.3.27.37.37 0 0 0-.01.32c.04.1.13.2.26.28a1.3 1.3 0 0 0 .95.08.82.82 0 0 0 .37-.22.4.4 0 0 0 .11-.32c-.01-.14-.12-.28-.29-.38a1.2 1.2 0 0 0-.62-.13ZM488.2 60.54c-.16 0-.3.04-.42.1a.57.57 0 0 0-.26.23.3.3 0 0 0-.01.28c.03.1.12.18.23.25a1.15 1.15 0 0 0 .84.07.73.73 0 0 0 .33-.2.36.36 0 0 0 .1-.27.38.38 0 0 0-.08-.19.59.59 0 0 0-.18-.15.92.92 0 0 0-.26-.1c-.1-.02-.2-.03-.3-.02Zm-70.78-11.17c-.17 0-.34.05-.48.11a.66.66 0 0 0-.3.27.38.38 0 0 0-.02.33c.05.1.14.2.27.28a1.32 1.32 0 0 0 .97.08.84.84 0 0 0 .37-.23c.09-.1.13-.2.11-.31a.4.4 0 0 0-.08-.22.67.67 0 0 0-.2-.17 1.06 1.06 0 0 0-.3-.11 1.95 1.95 0 0 0-.34-.03Zm38.3 29.13c-.24.01-.45.08-.6.2-.16.1-.24.25-.23.4.02.15.12.3.3.4a1.23 1.23 0 0 0 1.25-.05c.16-.11.24-.26.22-.41-.01-.15-.12-.3-.3-.4-.18-.1-.4-.15-.64-.14Zm-161-.98c-.18.01-.36.05-.5.12a.7.7 0 0 0-.32.27.39.39 0 0 0-.02.34.6.6 0 0 0 .27.3 1.37 1.37 0 0 0 1 .1c.17-.06.3-.14.4-.25a.43.43 0 0 0 .04-.55.68.68 0 0 0-.21-.18c-.1-.05-.2-.1-.3-.12a1.35 1.35 0 0 0-.36-.03ZM589 101.25c-.13 0-.24.03-.34.06-.11.03-.2.08-.28.13a.58.58 0 0 0-.18.2.38.38 0 0 0 .04.43.7.7 0 0 0 .2.18 1.34 1.34 0 0 0 .64.14c.13 0 .26-.01.37-.04a.97.97 0 0 0 .31-.13.61.61 0 0 0 .2-.2.4.4 0 0 0 .06-.23.42.42 0 0 0-.1-.23.71.71 0 0 0-.23-.19 1.42 1.42 0 0 0-.7-.12ZM463.6 7.7a1 1 0 0 0-.6.19.46.46 0 0 0-.22.4c.02.15.13.3.3.39.18.1.4.15.64.14.11 0 .22-.02.33-.06.1-.03.2-.07.27-.13a.57.57 0 0 0 .17-.19.38.38 0 0 0 .04-.21c-.01-.15-.12-.3-.3-.4-.17-.1-.4-.14-.62-.14ZM68.99 144c-.12 0-.24.02-.35.05-.11.04-.21.08-.3.14a.6.6 0 0 0-.18.2.4.4 0 0 0-.05.24.4.4 0 0 0 .1.22.7.7 0 0 0 .21.2 1.4 1.4 0 0 0 .68.15c.25-.01.48-.08.65-.2.16-.13.25-.28.24-.44a.45.45 0 0 0-.1-.23.72.72 0 0 0-.22-.19c-.1-.05-.2-.09-.32-.12A1.41 1.41 0 0 0 69 144Zm236.64-1.66c.38.22.42.6.08.84a1.3 1.3 0 0 1-1.3.04c-.39-.21-.42-.59-.08-.83.34-.25.92-.27 1.3-.05Zm-129.51-8.42a1 1 0 0 0-.31.06.9.9 0 0 0-.26.12.54.54 0 0 0-.17.18.37.37 0 0 0-.04.2c.01.15.11.28.27.37a1.19 1.19 0 0 0 .9.08c.1-.03.2-.07.26-.12a.55.55 0 0 0 .17-.18.35.35 0 0 0 .04-.2c-.01-.15-.1-.28-.27-.37-.16-.1-.37-.14-.6-.14Zm416.02-82.51c-.13 0-.26.01-.39.04a1.1 1.1 0 0 0-.32.14.65.65 0 0 0-.21.22.41.41 0 0 0-.06.25c0 .08.04.16.1.24.06.08.14.14.25.2a1.46 1.46 0 0 0 .74.13c.13 0 .26-.02.39-.05.12-.03.23-.08.32-.14.1-.06.17-.13.21-.21a.41.41 0 0 0 .06-.25.46.46 0 0 0-.1-.24.77.77 0 0 0-.25-.2 1.2 1.2 0 0 0-.35-.11 1.46 1.46 0 0 0-.39-.02Zm-466.1 99.06c-.1 0-.2.02-.3.05a.85.85 0 0 0-.26.12.52.52 0 0 0-.16.17.34.34 0 0 0-.04.2c0 .14.1.28.27.37a1.15 1.15 0 0 0 1.15-.04c.14-.1.22-.24.2-.38a.38.38 0 0 0-.08-.2.64.64 0 0 0-.19-.16.98.98 0 0 0-.27-.1c-.1-.03-.21-.04-.32-.03Zm185.65-24.44a2.03 2.03 0 0 0-1.18.37c-.15.1-.26.24-.33.37a.74.74 0 0 0-.08.43c.02.29.22.56.56.75a2.5 2.5 0 0 0 1.87.17c.2-.06.38-.14.53-.25.15-.1.26-.23.34-.37a.8.8 0 0 0 .09-.42.8.8 0 0 0-.16-.42 1.3 1.3 0 0 0-.4-.35 2 2 0 0 0-.58-.22 2.57 2.57 0 0 0-.66-.06Zm-1.75-3.7c-.13 0-.25.02-.36.06-.11.03-.21.08-.3.14a.64.64 0 0 0-.19.2.42.42 0 0 0-.05.24c.01.16.13.31.31.42a1.41 1.41 0 0 0 1.04.1c.12-.04.22-.09.3-.15a.63.63 0 0 0 .2-.2.41.41 0 0 0 .05-.24.44.44 0 0 0-.1-.23.72.72 0 0 0-.22-.19c-.09-.05-.2-.1-.32-.12a1.43 1.43 0 0 0-.36-.03Zm25.32-3.68a2.05 2.05 0 0 0-1.11.34c-.14.1-.25.22-.32.35a.7.7 0 0 0 .08.78c.09.12.22.23.37.32.16.09.34.16.54.2a2.44 2.44 0 0 0 1.23-.04c.19-.06.35-.14.5-.24.13-.1.24-.22.31-.35a.7.7 0 0 0-.07-.79c-.1-.12-.22-.23-.38-.32a1.92 1.92 0 0 0-.54-.2c-.2-.04-.4-.06-.61-.05Zm-79.3-117.5c-.12 0-.25.03-.36.06a1.4 1.4 0 0 0-.3.15.62.62 0 0 0-.18.2.42.42 0 0 0-.05.24c0 .08.02.17.07.25.05.08.12.15.22.2.1.07.2.11.33.14a1.43 1.43 0 0 0 .76-.02c.12-.04.23-.1.3-.16a.57.57 0 0 0 .19-.23.4.4 0 0 0 .02-.25.45.45 0 0 0-.1-.23.74.74 0 0 0-.21-.2 1.43 1.43 0 0 0-.69-.16v.01Zm20.59 111.04c-.25.01-.49.08-.66.2-.16.13-.25.29-.24.45.02.16.13.31.32.42a1.36 1.36 0 0 0 1.35-.04.65.65 0 0 0 .2-.21.42.42 0 0 0 .05-.24.45.45 0 0 0-.1-.23.73.73 0 0 0-.22-.2c-.1-.05-.2-.1-.33-.12a1.45 1.45 0 0 0-.37-.03ZM446.64 5.7c-.24.02-.46.1-.62.23-.15.12-.23.27-.21.43 0 .16.11.3.29.42a1.42 1.42 0 0 0 1.39-.01c.1-.06.17-.14.22-.22a.43.43 0 0 0 .06-.26.47.47 0 0 0-.1-.25.8.8 0 0 0-.26-.2c-.1-.06-.23-.1-.36-.13a1.52 1.52 0 0 0-.41-.01ZM131.99 169.42a.95.95 0 0 0-.55.17c-.14.1-.22.23-.2.37 0 .06.02.13.07.19s.1.11.19.16a1 1 0 0 0 .26.1 1.16 1.16 0 0 0 .86-.15c.14-.1.21-.23.2-.36a.38.38 0 0 0-.07-.2.61.61 0 0 0-.2-.16.92.92 0 0 0-.26-.1 1.2 1.2 0 0 0-.3-.02Zm-72.43-57.4c-.21 0-.41.04-.6.1-.19.05-.35.13-.5.23a.99.99 0 0 0-.3.35.68.68 0 0 0-.09.39c.02.13.07.26.16.38s.21.23.37.32c.15.09.33.16.53.2.2.04.4.06.61.05.4-.02.79-.14 1.06-.34s.4-.46.37-.73c-.02-.26-.2-.5-.5-.69a2.1 2.1 0 0 0-1.11-.26Zm4.7-17.23c-.2 0-.37.05-.53.12a.73.73 0 0 0-.33.3.42.42 0 0 0-.02.36c.05.12.16.23.3.31a1.46 1.46 0 0 0 1.07.1.93.93 0 0 0 .41-.25c.1-.11.15-.23.13-.36-.01-.16-.13-.32-.33-.43-.19-.1-.44-.16-.7-.15Zm57.99 27.43c-.26.01-.5.09-.67.21-.17.13-.26.29-.25.45 0 .09.03.17.09.24.05.08.13.15.23.2.1.06.2.1.33.13a1.5 1.5 0 0 0 .75-.03c.12-.04.22-.09.3-.15a.64.64 0 0 0 .2-.21.43.43 0 0 0 .05-.25c-.02-.16-.13-.32-.33-.43-.19-.1-.44-.17-.7-.16ZM229.01 1c-.2.02-.4.06-.56.14a.78.78 0 0 0-.36.31.45.45 0 0 0-.03.39.7.7 0 0 0 .31.33 1.55 1.55 0 0 0 1.14.1 1 1 0 0 0 .45-.26.5.5 0 0 0 .14-.38c-.02-.17-.14-.33-.34-.45S229.28 1 229 1ZM34.92 162.62c-.1 0-.2.03-.3.06a.84.84 0 0 0-.24.11.51.51 0 0 0-.16.18.34.34 0 0 0-.04.2c0 .06.03.13.08.19.04.06.1.11.18.15a1.2 1.2 0 0 0 .87.08.9.9 0 0 0 .26-.12.5.5 0 0 0 .15-.17.34.34 0 0 0 .04-.2.36.36 0 0 0-.08-.2.6.6 0 0 0-.18-.15.99.99 0 0 0-.27-.1c-.1-.02-.2-.03-.31-.03ZM220.4 92.18c-.27.01-.52.1-.7.22-.17.13-.26.3-.25.46 0 .09.04.17.1.25.05.08.13.15.23.2.1.06.22.1.34.13a1.54 1.54 0 0 0 .77-.03.86.86 0 0 0 .32-.15.68.68 0 0 0 .2-.22.43.43 0 0 0 .06-.25.47.47 0 0 0-.1-.24.77.77 0 0 0-.24-.2c-.1-.06-.22-.1-.34-.13a1.54 1.54 0 0 0-.4-.04Zm-101.1 71.66c-.1 0-.2.02-.3.05a.85.85 0 0 0-.24.11.5.5 0 0 0-.15.17.34.34 0 0 0-.04.2c0 .06.03.13.07.19.05.06.1.11.19.16.07.04.16.08.26.1a1.19 1.19 0 0 0 .6-.03.66.66 0 0 0 .24-.11.5.5 0 0 0 .15-.17.34.34 0 0 0 .04-.2.37.37 0 0 0-.07-.19.59.59 0 0 0-.19-.16.93.93 0 0 0-.26-.1c-.1-.02-.2-.03-.3-.02ZM7.17 154c-.19.02-.37.05-.54.1-.17.05-.32.13-.45.22-.12.09-.22.2-.28.3a.62.62 0 0 0-.08.37c.01.12.06.24.14.34.09.11.2.21.34.3a2.18 2.18 0 0 0 1.58.14 1.47 1.47 0 0 0 .74-.53.62.62 0 0 0 .07-.36.68.68 0 0 0-.14-.35c-.08-.11-.2-.21-.34-.29a2.14 2.14 0 0 0-1.04-.23Zm446.8-18.78c-.13 0-.26.03-.38.06-.12.04-.22.09-.3.15a.65.65 0 0 0-.2.22.42.42 0 0 0-.06.24c0 .09.04.17.1.25.05.07.13.14.23.2s.2.1.33.13.26.04.39.03c.26-.01.5-.1.67-.23.17-.13.25-.3.23-.47-.03-.16-.15-.3-.33-.41a1.4 1.4 0 0 0-.68-.17Zm37.92 30.65c-.1 0-.19.02-.28.05a.76.76 0 0 0-.22.1.47.47 0 0 0-.14.17.32.32 0 0 0-.04.18c0 .06.03.12.07.18.04.05.1.1.17.14a.9.9 0 0 0 .24.1 1.1 1.1 0 0 0 .57-.03.76.76 0 0 0 .23-.11c.06-.05.11-.1.14-.17a.31.31 0 0 0 .03-.19.47.47 0 0 0-.26-.3 1.03 1.03 0 0 0-.51-.12ZM642 58.68c-.27 0-.54.06-.76.17-.22.1-.38.25-.47.41-.1.17-.1.34-.04.51a.9.9 0 0 0 .41.44 2.07 2.07 0 0 0 1.51.14c.25-.07.46-.2.6-.35.13-.15.2-.32.18-.5-.02-.23-.18-.44-.45-.6a1.88 1.88 0 0 0-.98-.22ZM279.24 165.1c-.19 0-.37.04-.53.09a1.5 1.5 0 0 0-.44.2.92.92 0 0 0-.27.31.6.6 0 0 0-.08.35c.01.12.06.23.14.34.08.1.19.2.32.28.14.08.3.14.48.18a2.14 2.14 0 0 0 1.06-.04c.17-.05.32-.13.44-.21a.91.91 0 0 0 .27-.3.6.6 0 0 0 .08-.35c-.03-.24-.2-.46-.47-.62a1.93 1.93 0 0 0-1-.23Zm-115.81-4.81c-.26 0-.51.09-.69.21-.17.13-.26.3-.25.47a.5.5 0 0 0 .1.24c.06.07.14.14.24.2.1.06.21.1.33.13a1.5 1.5 0 0 0 .77-.03c.11-.04.22-.09.3-.15a.65.65 0 0 0 .2-.22.42.42 0 0 0 .06-.24c-.02-.17-.14-.33-.34-.45-.2-.11-.46-.17-.72-.16Zm194.96 1.67c-.2 0-.39.07-.52.16-.13.1-.2.22-.19.35 0 .06.03.12.08.18.04.05.1.1.17.15a1.07 1.07 0 0 0 1.04-.04c.14-.1.2-.22.2-.35a.36.36 0 0 0-.08-.18.58.58 0 0 0-.17-.15.87.87 0 0 0-.25-.1 1.1 1.1 0 0 0-.28-.02Zm109.18-6.36c-.13 0-.26.02-.38.06-.12.03-.23.09-.32.15a.65.65 0 0 0-.2.22.44.44 0 0 0-.05.25c0 .08.04.16.1.24.05.08.13.15.23.2.1.06.22.1.34.13a1.52 1.52 0 0 0 .77-.03.75.75 0 0 0 .31-.15.65.65 0 0 0 .2-.21.43.43 0 0 0 .06-.25.47.47 0 0 0-.1-.25.75.75 0 0 0-.23-.2c-.1-.06-.22-.1-.34-.13a1.48 1.48 0 0 0-.4-.03Zm-234.95-15.26a2 2 0 0 0-.52.09c-.16.05-.3.12-.42.2a.89.89 0 0 0-.27.3.6.6 0 0 0-.07.34c.02.24.18.45.45.61a1.9 1.9 0 0 0 1.94-.07c.24-.17.37-.4.35-.64a.65.65 0 0 0-.13-.33c-.08-.1-.2-.2-.33-.28a2.05 2.05 0 0 0-1-.22ZM53.35 107.88a.95.95 0 0 0-.52.2c-.13.1-.18.23-.16.36 0 .13.1.26.26.35.16.09.37.13.57.12a1 1 0 0 0 .55-.17c.14-.1.2-.23.2-.36a.37.37 0 0 0-.08-.21.63.63 0 0 0-.2-.17 1 1 0 0 0-.3-.1c-.1-.02-.21-.03-.32-.02Zm363.44 53.84c-.37.01-.7.12-.95.3-.24.16-.37.4-.35.63.02.23.19.45.46.6a1.92 1.92 0 0 0 1.94-.06c.24-.18.36-.41.34-.64a.64.64 0 0 0-.13-.34c-.08-.1-.19-.2-.32-.27a1.7 1.7 0 0 0-.46-.18 2.12 2.12 0 0 0-.53-.04Zm-138.44-42.51a.9.9 0 0 0-.49.16c-.13.08-.19.2-.18.32 0 .07.03.13.07.18.04.05.1.1.17.14l.24.1a1.06 1.06 0 0 0 .77-.14c.06-.04.1-.1.14-.15a.31.31 0 0 0 .03-.18c-.01-.12-.1-.23-.24-.31a.99.99 0 0 0-.51-.12Zm390.42-8.08c-.35.03-.67.14-.9.3-.22.18-.34.4-.31.63.03.22.2.43.47.58a1.87 1.87 0 0 0 1.86-.1c.23-.17.34-.4.32-.62-.03-.22-.2-.43-.47-.58a1.87 1.87 0 0 0-.97-.2Zm-450.8 29.7c-.14 0-.27.02-.4.06-.12.04-.23.1-.32.16a.69.69 0 0 0-.2.22.44.44 0 0 0-.06.26c.02.18.14.34.34.46a1.43 1.43 0 0 0 1.14.1c.12-.04.23-.09.32-.16a.7.7 0 0 0 .2-.22.45.45 0 0 0 .06-.26c-.02-.17-.14-.34-.34-.45-.2-.12-.47-.18-.74-.17Zm70.33-1.76a1 1 0 0 0-.27.04.78.78 0 0 0-.22.1.52.52 0 0 0-.14.16.3.3 0 0 0-.04.17c.02.12.1.23.24.3.13.09.31.13.5.12.08 0 .18-.02.26-.04a.77.77 0 0 0 .21-.1c.06-.05.11-.1.14-.16a.3.3 0 0 0 .04-.17c-.01-.12-.1-.23-.23-.3a.98.98 0 0 0-.5-.12Zm-48.97-17.91a1.27 1.27 0 0 0-.71.22.67.67 0 0 0-.2.22.44.44 0 0 0-.06.26c0 .09.04.17.1.25a.8.8 0 0 0 .25.21c.1.06.22.1.34.13a1.52 1.52 0 0 0 1.12-.19c.19-.13.28-.3.27-.48-.02-.17-.15-.34-.35-.46a1.55 1.55 0 0 0-.76-.16Zm-93.74-37.1c-.16 0-.3.04-.42.1a.58.58 0 0 0-.27.23.3.3 0 0 0-.02.28c.04.1.12.18.23.25a1 1 0 0 0 .4.12c.16.01.31 0 .45-.04a.74.74 0 0 0 .33-.2.37.37 0 0 0 .1-.28.36.36 0 0 0-.07-.18.57.57 0 0 0-.18-.16.91.91 0 0 0-.26-.1c-.1-.02-.2-.02-.3-.02Zm-7.73 39.74c-.2 0-.39.07-.52.16-.13.1-.2.22-.19.35 0 .06.03.12.07.18.04.06.1.11.18.15a.7.7 0 0 0 .25.1l.3.03a.9.9 0 0 0 .51-.16c.14-.1.2-.23.2-.36a.35.35 0 0 0-.08-.18.6.6 0 0 0-.18-.15.95.95 0 0 0-.25-.1c-.1-.02-.2-.02-.3-.02Zm-50.89-12.92c-.2 0-.38.06-.51.16-.13.09-.2.21-.19.34 0 .06.03.12.08.17.04.06.1.1.17.15.07.04.16.07.25.1a1.11 1.11 0 0 0 .56-.03.78.78 0 0 0 .23-.1c.06-.06.11-.1.14-.17a.32.32 0 0 0 .04-.18.35.35 0 0 0-.07-.18.57.57 0 0 0-.17-.15 1.09 1.09 0 0 0-.53-.12ZM212.5 68.5c-.15 0-.28.02-.41.06-.13.04-.25.1-.34.17a.72.72 0 0 0-.22.23.46.46 0 0 0-.05.27c0 .14.08.27.21.39.13.1.3.2.51.24.2.05.43.05.64.02.2-.04.4-.11.54-.21.15-.1.24-.24.27-.38a.49.49 0 0 0-.1-.4.97.97 0 0 0-.43-.3 1.6 1.6 0 0 0-.62-.1ZM76.55 161.2a1.29 1.29 0 0 0-.74.22.68.68 0 0 0-.2.24.46.46 0 0 0-.06.26c.01.09.05.18.1.26a.8.8 0 0 0 .25.21c.1.06.23.1.36.14a1.6 1.6 0 0 0 .81-.03c.13-.04.25-.1.34-.16a.7.7 0 0 0 .21-.23.46.46 0 0 0 .06-.27.5.5 0 0 0-.1-.26.81.81 0 0 0-.26-.21c-.1-.06-.22-.11-.36-.14a1.58 1.58 0 0 0-.41-.04Zm170.08 3.07a.97.97 0 0 0-.26.04.72.72 0 0 0-.21.1c-.06.05-.1.1-.13.15a.28.28 0 0 0-.04.17c.02.11.1.22.23.3a.93.93 0 0 0 .94-.04c.06-.04.1-.09.13-.14a.29.29 0 0 0 .04-.17.31.31 0 0 0-.06-.16.5.5 0 0 0-.16-.14.82.82 0 0 0-.22-.09 1.03 1.03 0 0 0-.26-.02Zm13.97-5.55a.86.86 0 0 0-.46.14c-.11.08-.18.2-.17.3.01.12.1.23.23.3.13.08.3.11.48.1.08 0 .17-.01.25-.03a.69.69 0 0 0 .2-.1c.06-.04.1-.1.13-.15a.3.3 0 0 0 .04-.16c-.01-.11-.1-.22-.22-.3a.91.91 0 0 0-.48-.1ZM124 50.2c-.23 0-.45.05-.63.14a.88.88 0 0 0-.4.35.5.5 0 0 0-.03.43c.06.14.19.27.36.37a1.67 1.67 0 0 0 1.27.11c.2-.06.38-.16.49-.3a.54.54 0 0 0 .16-.41.57.57 0 0 0-.11-.28.89.89 0 0 0-.28-.23 1.39 1.39 0 0 0-.38-.15c-.15-.03-.3-.04-.45-.04Zm217.2 89.94a1.41 1.41 0 0 0-.75.23.72.72 0 0 0-.21.23.46.46 0 0 0-.06.27c0 .1.04.19.1.27a.9.9 0 0 0 .25.22 1.64 1.64 0 0 0 1.22.1c.13-.03.25-.1.35-.17a.7.7 0 0 0 .21-.25.4.4 0 0 0 .04-.28c-.03-.18-.17-.34-.38-.46a1.53 1.53 0 0 0-.77-.16Zm-.91 28.76a.9.9 0 0 0-.24.04.67.67 0 0 0-.2.1.4.4 0 0 0-.13.13.27.27 0 0 0-.03.16c.01.1.1.2.22.28.12.07.28.1.45.1.08 0 .16-.02.24-.04a.68.68 0 0 0 .2-.1.3.3 0 0 0 .12-.13.27.27 0 0 0-.03-.3.5.5 0 0 0-.14-.14.95.95 0 0 0-.46-.1Zm-44.38-38.8a2 2 0 0 0-.49.07c-.15.05-.29.11-.4.19a.8.8 0 0 0-.26.27.52.52 0 0 0-.06.32c0 .11.03.22.1.32s.17.19.3.26c.11.08.26.13.42.17a2.07 2.07 0 0 0 .99-.03c.16-.04.3-.1.4-.19a.8.8 0 0 0 .26-.27c.06-.1.08-.21.07-.32 0-.1-.04-.22-.1-.32a.92.92 0 0 0-.3-.26 1.48 1.48 0 0 0-.43-.16 1.84 1.84 0 0 0-.5-.04Zm-241.93-2.43c-.15 0-.3.03-.44.07-.13.04-.25.1-.35.18a.74.74 0 0 0-.23.24.49.49 0 0 0-.05.3c0 .09.04.18.11.27.07.09.16.17.27.23a1.69 1.69 0 0 0 .83.18c.16 0 .3-.03.44-.07.13-.04.26-.1.36-.18.1-.07.17-.15.22-.25.05-.09.07-.19.05-.28 0-.1-.04-.2-.1-.28a.88.88 0 0 0-.28-.23 1.39 1.39 0 0 0-.39-.14c-.14-.04-.3-.05-.44-.04Zm497.44-47.03a1.49 1.49 0 0 0-.78.24.7.7 0 0 0-.21.25.47.47 0 0 0-.04.29c0 .1.05.19.11.27a.8.8 0 0 0 .28.23c.11.06.24.1.38.14.15.03.3.04.45.03.15 0 .3-.02.44-.05.14-.04.27-.1.38-.17.1-.07.19-.15.24-.24.05-.1.08-.2.07-.3a.53.53 0 0 0-.12-.28.9.9 0 0 0-.3-.22 1.4 1.4 0 0 0-.4-.14 1.7 1.7 0 0 0-.45-.01l-.05-.04Zm-275.45 39.04c-.15 0-.3.03-.44.07-.13.04-.25.1-.35.18a.71.71 0 0 0-.22.25.53.53 0 0 0 .06.56c.07.09.16.16.27.23a1.73 1.73 0 0 0 1.62-.07c.1-.08.18-.16.22-.26.05-.09.07-.18.05-.28 0-.1-.04-.2-.1-.28a.87.87 0 0 0-.28-.23 1.38 1.38 0 0 0-.39-.14c-.14-.03-.3-.04-.44-.03Zm299.91-76.86a1.6 1.6 0 0 0-.6.15.8.8 0 0 0-.37.35.48.48 0 0 0-.01.41c.06.14.18.26.35.35a1.68 1.68 0 0 0 1.23.1 1 1 0 0 0 .46-.28.53.53 0 0 0 .15-.4.55.55 0 0 0-.11-.28.87.87 0 0 0-.27-.23 1.38 1.38 0 0 0-.4-.14 1.7 1.7 0 0 0-.43-.03ZM161.75 83.15c-.34 0-.65.1-.88.27-.22.16-.34.37-.31.59.01.22.17.42.42.56.25.15.58.22.92.21.34-.01.65-.11.87-.27.23-.16.34-.38.32-.6-.01-.21-.17-.41-.42-.56a1.75 1.75 0 0 0-.92-.2ZM227.6 21.1c-.24 0-.48.05-.68.14a.96.96 0 0 0-.44.36.48.48 0 0 0-.05.46c.05.16.18.3.36.4a1.68 1.68 0 0 0 1.36.12c.22-.07.4-.18.52-.32a.55.55 0 0 0 .15-.45c-.03-.2-.17-.37-.4-.5-.22-.14-.51-.2-.82-.2ZM495.57-.42c-.23 0-.46.06-.65.16a.91.91 0 0 0-.4.36c-.09.14-.1.3-.04.44a.8.8 0 0 0 .35.39c.17.1.39.17.62.2.23.02.47 0 .7-.05.2-.06.4-.16.52-.3a.6.6 0 0 0 .2-.42c0-.1-.03-.21-.1-.31a.9.9 0 0 0-.28-.26 1.45 1.45 0 0 0-.43-.17 1.84 1.84 0 0 0-.49-.04ZM653.02 32.5c-.21.02-.42.08-.59.16a.8.8 0 0 0-.35.34.47.47 0 0 0-.01.41c.06.13.18.25.34.35a1.66 1.66 0 0 0 1.2.1c.2-.07.37-.16.48-.28a.52.52 0 0 0 .15-.4.53.53 0 0 0-.12-.28.85.85 0 0 0-.27-.22 1.36 1.36 0 0 0-.39-.14 1.7 1.7 0 0 0-.44-.03Zm-99.51 102.46c-.16 0-.33.03-.48.07-.16.04-.3.1-.4.18a.8.8 0 0 0-.26.27.57.57 0 0 0 .05.62c.07.1.16.18.29.25a1.85 1.85 0 0 0 1.74-.07.8.8 0 0 0 .24-.27c.05-.1.07-.2.06-.3-.01-.2-.15-.4-.38-.54a1.66 1.66 0 0 0-.86-.2ZM95.89 148.93c-.32 0-.62.1-.84.26-.21.15-.32.35-.3.56.01.2.15.38.38.52a1.65 1.65 0 0 0 1.29.14c.14-.05.27-.11.38-.19a.8.8 0 0 0 .24-.26c.05-.1.07-.2.06-.3-.02-.2-.16-.39-.38-.52a1.63 1.63 0 0 0-.83-.21Zm324.61-93.2c-.17 0-.32.03-.46.07-.15.05-.28.11-.38.19a.8.8 0 0 0-.24.26c-.06.1-.08.2-.07.3.02.16.1.3.25.43.14.12.34.22.57.27a1.83 1.83 0 0 0 1.3-.22.71.71 0 0 0 .3-.42c.03-.15 0-.3-.11-.44-.1-.14-.27-.26-.48-.34-.2-.07-.44-.11-.69-.1ZM396.48 1.5a2.2 2.2 0 0 0-.46.09c-.15.04-.27.1-.38.18a.81.81 0 0 0-.24.27c-.05.1-.07.2-.06.3.01.15.1.3.24.42.15.13.35.22.57.27.23.05.48.06.7.02.24-.04.45-.13.6-.24a.71.71 0 0 0 .3-.41.53.53 0 0 0-.1-.45 1.04 1.04 0 0 0-.49-.33c-.2-.08-.44-.12-.68-.11ZM374.3 66c-.25.02-.48.07-.67.16-.2.1-.34.22-.42.37a.52.52 0 0 0-.03.46c.06.15.2.28.37.38.18.1.4.17.65.2.24.01.48-.01.7-.08.21-.07.4-.18.51-.31a.57.57 0 0 0 .16-.44c-.02-.2-.17-.4-.4-.54-.24-.13-.56-.2-.87-.2Z"/>
        <g opacity=".6">
          <path opacity=".6" d="M741.77 7.82c-.18 0-.35.05-.49.12a.68.68 0 0 0-.3.27.39.39 0 0 0-.03.34c.05.11.15.21.28.3.13.07.3.12.48.13.18.02.36 0 .52-.05.16-.05.3-.13.39-.23.1-.1.13-.21.13-.33-.02-.15-.13-.3-.31-.4-.19-.1-.42-.16-.67-.15Zm38.73 96.53c-.23 0-.45.08-.6.19-.15.1-.23.25-.22.4a.4.4 0 0 0 .09.21.7.7 0 0 0 .2.18 1.36 1.36 0 0 0 .96.09c.11-.03.2-.08.28-.14a.55.55 0 0 0 .17-.18.37.37 0 0 0 .04-.22.42.42 0 0 0-.08-.21.68.68 0 0 0-.2-.18 1.09 1.09 0 0 0-.3-.11.98.98 0 0 0-.34-.03ZM949.3 25.7c-.18.01-.35.05-.5.12a.68.68 0 0 0-.31.28.39.39 0 0 0-.02.34c.04.11.14.21.27.29a1.37 1.37 0 0 0 1 .09c.17-.05.3-.14.4-.24.09-.1.13-.21.12-.33a.58.58 0 0 0-.3-.4c-.19-.1-.42-.15-.66-.15Zm-7.15 117.15c-.22.01-.43.08-.57.19-.15.1-.23.25-.22.39 0 .07.04.14.08.2.05.07.12.13.2.17a1.3 1.3 0 0 0 .93.09c.1-.03.2-.08.27-.13a.56.56 0 0 0 .16-.18.37.37 0 0 0-.03-.42.66.66 0 0 0-.2-.17 1.04 1.04 0 0 0-.29-.11c-.1-.02-.22-.03-.33-.03ZM700 155.56c-.11 0-.22.03-.32.06s-.2.07-.27.13a.56.56 0 0 0-.17.18.36.36 0 0 0-.04.21c.01.15.12.28.29.38a1.25 1.25 0 0 0 .94.08.9.9 0 0 0 .27-.13.55.55 0 0 0 .16-.18.37.37 0 0 0-.03-.42.64.64 0 0 0-.2-.17 1.04 1.04 0 0 0-.3-.11c-.1-.02-.22-.03-.33-.03Zm286.36-49.17a.95.95 0 0 0-.58.18c-.15.11-.23.25-.21.4 0 .07.03.14.08.2s.11.12.2.17a1.3 1.3 0 0 0 .93.09.9.9 0 0 0 .26-.13.55.55 0 0 0 .17-.19.38.38 0 0 0 .05-.2.42.42 0 0 0-.09-.21.66.66 0 0 0-.2-.17 1 1 0 0 0-.28-.11 1.3 1.3 0 0 0-.33-.03Zm-22.34 32.15a2.4 2.4 0 0 0-1.28.39c-.33.23-.5.53-.49.85.02.16.08.3.18.45.1.14.26.27.44.37a2.42 2.42 0 0 0 1.34.3c.5-.01.95-.16 1.28-.4.33-.23.5-.54.47-.85-.04-.31-.26-.6-.63-.8a2.44 2.44 0 0 0-1.31-.3Zm-79.03-31.22c-.12 0-.24.02-.35.06-.11.03-.21.08-.3.14a.61.61 0 0 0-.18.2.4.4 0 0 0-.05.23c.01.08.04.16.1.23.05.07.12.13.21.19.1.05.2.1.32.12.11.03.24.04.36.03.25 0 .48-.08.65-.2.16-.12.25-.28.24-.44a.45.45 0 0 0-.1-.23.72.72 0 0 0-.22-.18.88.88 0 0 0-.32-.12 1.41 1.41 0 0 0-.36-.03Zm107.13-10.07c-.11 0-.22.02-.32.05a.9.9 0 0 0-.25.13.54.54 0 0 0-.17.17.37.37 0 0 0-.04.21c.01.14.11.27.27.36a1.2 1.2 0 0 0 .9.08c.1-.02.2-.06.26-.12a.54.54 0 0 0 .17-.18.35.35 0 0 0 .04-.2c-.01-.14-.1-.27-.27-.37a1.13 1.13 0 0 0-.6-.13Zm-199.25 57.52c-.25 0-.5.05-.73.12a2.1 2.1 0 0 0-.6.3c-.18.11-.3.26-.4.41a.84.84 0 0 0-.1.49c.02.16.09.32.2.47.1.15.26.28.45.4a2.94 2.94 0 0 0 1.4.32c.53-.03 1-.19 1.35-.44.34-.25.51-.57.48-.9-.03-.33-.26-.64-.64-.86a2.67 2.67 0 0 0-1.4-.31Zm131.39-11.59c-.12 0-.24.02-.35.06-.1.03-.2.08-.28.14a.6.6 0 0 0-.19.2.4.4 0 0 0-.04.22c0 .08.03.16.09.23.05.07.12.13.21.19a1.37 1.37 0 0 0 .67.15c.25-.02.47-.09.64-.2.16-.12.25-.28.24-.44a.45.45 0 0 0-.1-.22.72.72 0 0 0-.22-.19 1.43 1.43 0 0 0-.67-.15Zm17.78-29.38c-.1 0-.2.01-.3.04a.85.85 0 0 0-.26.12.52.52 0 0 0-.16.18.34.34 0 0 0-.04.2c0 .14.1.27.27.36a1.14 1.14 0 0 0 1.15-.04c.14-.1.21-.24.2-.38a.38.38 0 0 0-.07-.2.64.64 0 0 0-.2-.16.98.98 0 0 0-.27-.1c-.1-.02-.21-.03-.32-.03Zm5.95 18.94c-.22.01-.41.07-.55.17-.14.1-.22.24-.2.37 0 .07.02.13.07.2a.82.82 0 0 0 .45.25 1.16 1.16 0 0 0 .86-.14c.14-.1.21-.24.2-.37a.38.38 0 0 0-.07-.2.63.63 0 0 0-.2-.15.99.99 0 0 0-.26-.1l-.3-.03Zm-72.43-57.4c-.21 0-.41.04-.6.1a1.7 1.7 0 0 0-.5.24.96.96 0 0 0-.3.34.67.67 0 0 0-.08.4c0 .13.06.26.15.38s.21.22.37.31c.15.1.33.16.53.2a2.07 2.07 0 0 0 1.67-.29c.27-.2.4-.46.37-.72-.02-.27-.2-.52-.5-.7a2.2 2.2 0 0 0-1.11-.26Zm4.7-17.23c-.2 0-.37.05-.53.13a.72.72 0 0 0-.33.3.41.41 0 0 0-.02.36c.05.11.16.22.3.3a1.46 1.46 0 0 0 1.07.1.94.94 0 0 0 .41-.25c.1-.1.15-.23.13-.35-.01-.17-.13-.32-.33-.43a1.32 1.32 0 0 0-.7-.16Zm57.99 27.43c-.26.02-.5.1-.67.22-.17.12-.26.28-.25.45 0 .08.03.16.09.24.06.07.13.14.23.2.1.05.2.1.33.12a1.47 1.47 0 0 0 .75-.03.83.83 0 0 0 .3-.14.65.65 0 0 0 .2-.22.43.43 0 0 0 .05-.24c-.02-.17-.13-.32-.33-.43a1.42 1.42 0 0 0-.7-.17Zm-87.33 40.41c-.1 0-.2.02-.3.05a.83.83 0 0 0-.24.12.51.51 0 0 0-.16.17.34.34 0 0 0-.04.2c0 .06.03.13.08.19.04.06.1.11.18.16a1.2 1.2 0 0 0 .88.08c.1-.03.18-.07.25-.12a.5.5 0 0 0 .15-.18.33.33 0 0 0 .04-.2.36.36 0 0 0-.08-.19.62.62 0 0 0-.18-.16.97.97 0 0 0-.27-.1c-.1-.02-.2-.03-.31-.02ZM1036.4 55.5c-.27.02-.52.1-.69.22-.18.13-.27.3-.26.47.01.08.04.17.1.24.05.08.13.15.23.2.1.06.22.1.34.14a1.57 1.57 0 0 0 .77-.03c.12-.04.23-.09.32-.15a.61.61 0 0 0 .2-.22.56.56 0 0 0 .06-.25.59.59 0 0 0-.1-.25.8.8 0 0 0-.24-.2 1.3 1.3 0 0 0-.34-.13 1.56 1.56 0 0 0-.39-.03Zm-101.1 71.66c-.1 0-.2.02-.3.05a.85.85 0 0 0-.24.12.5.5 0 0 0-.15.17.34.34 0 0 0-.04.2c0 .06.03.12.07.18.04.06.1.12.19.16.07.05.16.08.26.1a1.14 1.14 0 0 0 .84-.14.5.5 0 0 0 .15-.17.34.34 0 0 0 .04-.2.37.37 0 0 0-.07-.19.59.59 0 0 0-.18-.15.9.9 0 0 0-.27-.1l-.3-.03Zm-112.13-9.83c-.19.01-.37.04-.54.1-.17.05-.32.12-.45.21-.12.1-.22.2-.28.31a.62.62 0 0 0-.08.36.7.7 0 0 0 .14.35c.09.1.2.2.34.29a2.19 2.19 0 0 0 1.58.14c.17-.06.33-.13.45-.22a1 1 0 0 0 .28-.31.62.62 0 0 0 .08-.36.69.69 0 0 0-.14-.35c-.08-.1-.2-.2-.34-.29a1.7 1.7 0 0 0-.48-.18 2.19 2.19 0 0 0-.56-.05Zm156.26 6.28c-.26.01-.51.1-.68.22-.18.13-.27.3-.26.46.01.08.04.17.1.24.06.08.14.15.24.2.1.06.21.1.33.13a1.5 1.5 0 0 0 .77-.03.7.7 0 0 0 .3-.15.66.66 0 0 0 .2-.21.42.42 0 0 0 .06-.25c-.02-.17-.14-.33-.34-.44a1.3 1.3 0 0 0-.72-.17ZM791.35 62.13c-.1 0-.21.02-.31.05a.89.89 0 0 0-.26.13.54.54 0 0 0-.16.18.35.35 0 0 0-.05.2c.02.14.12.28.28.37.16.1.38.14.6.13.22 0 .42-.07.57-.18.14-.1.22-.24.2-.38a.4.4 0 0 0-.07-.2.65.65 0 0 0-.2-.17 1.01 1.01 0 0 0-.28-.1c-.1-.03-.21-.03-.32-.03Zm257.27 41.54a1.88 1.88 0 0 0-.94.29.9.9 0 0 0-.27.3.52.52 0 0 0-.07.34c.02.23.18.45.45.6a1.92 1.92 0 0 0 1.94-.06c.24-.18.37-.41.35-.64a.63.63 0 0 0-.13-.34 1 1 0 0 0-.33-.27 1.6 1.6 0 0 0-.46-.18 2.15 2.15 0 0 0-.54-.04ZM869.35 71.2a.95.95 0 0 0-.52.2c-.13.1-.19.23-.16.36 0 .14.1.26.26.35.16.1.37.14.58.13a1 1 0 0 0 .54-.17c.14-.1.2-.24.2-.37a.36.36 0 0 0-.08-.2.62.62 0 0 0-.2-.18.99.99 0 0 0-.3-.1c-.1-.02-.21-.02-.32-.01Zm164.62 32.95a1.34 1.34 0 0 0-.72.22.63.63 0 0 0-.2.23.48.48 0 0 0-.06.26c.02.17.14.33.34.45.21.12.47.18.75.17.13 0 .26-.03.39-.06.12-.04.23-.1.32-.16a.63.63 0 0 0 .2-.23.4.4 0 0 0 .06-.25c-.02-.18-.14-.34-.34-.46a1.44 1.44 0 0 0-.74-.17ZM711.87 78.5c-.28.02-.54.1-.72.24-.19.13-.29.3-.27.49 0 .09.04.17.1.25.06.09.14.16.25.22a1.6 1.6 0 0 0 1.17.1c.12-.04.23-.1.33-.16a.7.7 0 0 0 .2-.23.46.46 0 0 0 .06-.26.5.5 0 0 0-.1-.26.82.82 0 0 0-.25-.21c-.1-.06-.23-.1-.36-.14a1.6 1.6 0 0 0-.4-.03Zm343.46 5.98c-.13 0-.27.03-.39.06-.12.04-.23.1-.32.16a.77.77 0 0 0-.21.23.47.47 0 0 0 .05.5c.06.08.14.16.25.21a1.36 1.36 0 0 0 .74.17c.28-.01.54-.09.72-.22.19-.13.28-.3.27-.48-.02-.18-.15-.35-.35-.46a1.47 1.47 0 0 0-.76-.17Zm-93.74-37.1c-.16 0-.3.04-.42.1a.58.58 0 0 0-.27.23c-.05.1-.05.2-.02.29.04.1.12.18.23.24a1.15 1.15 0 0 0 .84.08.74.74 0 0 0 .34-.2.37.37 0 0 0 .1-.27.36.36 0 0 0-.07-.19.57.57 0 0 0-.18-.15.91.91 0 0 0-.26-.1l-.3-.03Zm-7.73 39.74c-.2.01-.39.07-.52.16-.13.1-.2.22-.19.35 0 .07.03.13.07.19.04.05.1.1.18.15.07.04.16.07.25.1.1.02.2.03.3.02.2 0 .38-.06.51-.16.14-.1.2-.22.2-.35a.35.35 0 0 0-.08-.19.6.6 0 0 0-.18-.15.93.93 0 0 0-.25-.1l-.3-.02ZM902.97 74.2a.9.9 0 0 0-.51.16c-.13.1-.2.22-.19.34 0 .06.03.12.08.18.04.05.1.1.17.14a.9.9 0 0 0 .25.1 1.1 1.1 0 0 0 .79-.14.5.5 0 0 0 .14-.15.33.33 0 0 0 .04-.18.35.35 0 0 0-.07-.18.56.56 0 0 0-.17-.15.88.88 0 0 0-.25-.1 1.1 1.1 0 0 0-.28-.02ZM777.34 6.73c-.17 0-.33.04-.46.1a.63.63 0 0 0-.28.25.31.31 0 0 0-.02.31c.04.1.13.2.25.27s.27.11.44.13c.16.01.33 0 .47-.05a.79.79 0 0 0 .35-.21.4.4 0 0 0 .11-.3.38.38 0 0 0-.08-.2.62.62 0 0 0-.19-.17.97.97 0 0 0-.27-.1c-.1-.03-.21-.03-.32-.03ZM1026.2 151.3a.94.94 0 0 0-.5.16c-.13.1-.19.21-.18.33 0 .07.03.13.07.18.04.06.1.1.17.15.07.04.15.07.24.09.09.02.19.03.28.02.1 0 .19-.02.28-.04a.84.84 0 0 0 .23-.11.5.5 0 0 0 .14-.16.29.29 0 0 0 .03-.18c-.01-.12-.1-.24-.24-.32a1.03 1.03 0 0 0-.52-.12Zm2.3-119.48c-.15 0-.28.03-.41.07-.13.04-.25.1-.34.16a.71.71 0 0 0-.22.23.5.5 0 0 0-.05.27c.01.14.08.28.21.39.13.11.31.2.51.24.21.05.43.06.64.02.21-.03.4-.1.54-.21a.6.6 0 0 0 .27-.37.47.47 0 0 0-.1-.4.9.9 0 0 0-.43-.3 1.45 1.45 0 0 0-.62-.1ZM739.18 152.53c-.1 0-.19.02-.28.04a.77.77 0 0 0-.23.12.48.48 0 0 0-.15.16.32.32 0 0 0-.04.18c.01.13.1.25.25.33a1.03 1.03 0 0 0 .82.07.77.77 0 0 0 .23-.1.53.53 0 0 0 .14-.17.32.32 0 0 0 .04-.19.35.35 0 0 0-.07-.18.55.55 0 0 0-.17-.14.9.9 0 0 0-.25-.1c-.1-.02-.19-.03-.29-.02Z"/>
          <path opacity=".6" d="M779.47 103.76a1.7 1.7 0 0 0-.9.3c-.23.18-.34.4-.32.62.04.23.2.43.47.58.26.14.6.22.95.2.34-.02.65-.11.88-.27.23-.17.35-.38.35-.6a.64.64 0 0 0-.13-.33.87.87 0 0 0-.32-.27 1.6 1.6 0 0 0-.46-.18 2.07 2.07 0 0 0-.52-.05Zm113.08 20.76a1.2 1.2 0 0 0-.74.23.69.69 0 0 0-.2.23.46.46 0 0 0-.06.27c.01.08.05.17.1.25a.8.8 0 0 0 .25.21c.1.06.23.11.36.14a1.64 1.64 0 0 0 .82-.03c.12-.04.24-.1.33-.16a.7.7 0 0 0 .21-.23.47.47 0 0 0-.04-.52.81.81 0 0 0-.26-.22 1.62 1.62 0 0 0-.77-.17Zm170.08 3.08a1 1 0 0 0-.26.04.73.73 0 0 0-.21.1.43.43 0 0 0-.13.14.33.33 0 0 0-.04.17c.02.11.1.22.23.3a.92.92 0 0 0 .73.07.7.7 0 0 0 .21-.1c.06-.05.11-.1.13-.15a.26.26 0 0 0 .04-.17.27.27 0 0 0-.06-.16.5.5 0 0 0-.16-.14.72.72 0 0 0-.22-.08 1.08 1.08 0 0 0-.26-.02Zm-74.71 18.19c-.09 0-.18.02-.26.04a.74.74 0 0 0-.22.11c-.06.04-.1.1-.14.15a.32.32 0 0 0 .03.35c.05.05.1.1.17.14l.24.1a1.08 1.08 0 0 0 .54-.03.76.76 0 0 0 .21-.1c.06-.05.11-.1.14-.16a.3.3 0 0 0 .04-.17.32.32 0 0 0-.07-.17.53.53 0 0 0-.16-.15.85.85 0 0 0-.24-.09 1.08 1.08 0 0 0-.28-.02ZM713.38 108.5a2 2 0 0 0-.51.09c-.16.05-.3.12-.43.2a.9.9 0 0 0-.27.3.59.59 0 0 0-.06.34c0 .11.05.23.12.33.08.1.19.2.32.28a2.01 2.01 0 0 0 1.93-.07c.24-.18.37-.41.35-.64-.03-.23-.2-.45-.46-.6a1.9 1.9 0 0 0-.99-.22Zm363.22 13.54a.83.83 0 0 0-.45.14c-.12.09-.19.2-.18.31.01.12.1.22.23.3a1.04 1.04 0 0 0 .73.06.81.81 0 0 0 .2-.1c.06-.04.1-.09.13-.14a.3.3 0 0 0 .04-.16c-.01-.12-.09-.22-.22-.3a.92.92 0 0 0-.48-.11Zm-319.49 25.39a.91.91 0 0 0-.49.16c-.12.09-.19.2-.18.33.02.12.1.23.24.31.15.08.33.12.52.12a.95.95 0 0 0 .49-.16c.12-.09.19-.2.18-.33-.02-.12-.1-.23-.24-.31a.98.98 0 0 0-.52-.12ZM940 13.52c-.23 0-.45.06-.63.14a.88.88 0 0 0-.4.35.5.5 0 0 0-.02.43c.05.15.17.28.34.37a1.74 1.74 0 0 0 1.27.11c.21-.06.39-.16.5-.29a.54.54 0 0 0 .16-.42.53.53 0 0 0-.12-.28.89.89 0 0 0-.27-.23 1.39 1.39 0 0 0-.38-.15c-.15-.03-.3-.04-.45-.03Zm-25.86 133a.85.85 0 0 0-.45.14c-.1.08-.17.19-.16.3.01.1.09.2.22.28.12.07.29.1.46.1a.8.8 0 0 0 .44-.14c.11-.08.17-.18.17-.3a.3.3 0 0 0-.07-.15.48.48 0 0 0-.15-.13.79.79 0 0 0-.22-.08.98.98 0 0 0-.24-.02ZM869.98 91c-.15 0-.3.02-.44.06-.13.05-.25.1-.35.18a.74.74 0 0 0-.23.25.53.53 0 0 0 .06.57 1.22 1.22 0 0 0 .66.37 1.72 1.72 0 0 0 1.24-.21c.1-.08.17-.16.22-.25.05-.1.07-.2.05-.29a.5.5 0 0 0-.1-.28.88.88 0 0 0-.28-.23 1.38 1.38 0 0 0-.39-.14c-.14-.03-.3-.04-.44-.04Zm107.77-44.53c-.34.01-.65.11-.88.27-.22.16-.34.38-.32.6.02.21.18.41.43.56.25.14.58.22.92.2.33 0 .65-.1.87-.27.23-.16.34-.37.33-.59-.02-.22-.18-.42-.43-.56a1.75 1.75 0 0 0-.92-.21Zm-65.86 65.78c-.32.01-.62.1-.84.26-.21.15-.32.36-.3.56.01.2.15.39.38.53a1.65 1.65 0 0 0 1.29.13c.14-.05.27-.1.38-.19a.8.8 0 0 0 .24-.26c.05-.1.07-.2.06-.3-.02-.2-.16-.39-.38-.52a1.64 1.64 0 0 0-.83-.2Zm-193.14 8.41c-.3 0-.6.1-.8.24-.21.15-.33.34-.33.54.02.2.16.38.39.52.22.13.52.2.83.2.3-.01.6-.1.8-.24.21-.15.33-.34.33-.54-.02-.2-.16-.38-.39-.52a1.65 1.65 0 0 0-.83-.2Zm-18.61-43.93c-.15 0-.31.03-.46.07-.14.05-.27.11-.37.19a.8.8 0 0 0-.24.26c-.06.1-.08.2-.07.3 0 .11.04.22.1.31.07.1.16.2.28.26.12.08.27.13.42.17a2.07 2.07 0 0 0 .97-.02c.16-.04.3-.1.4-.18.12-.08.2-.17.26-.27s.09-.2.08-.31a.56.56 0 0 0-.1-.33.91.91 0 0 0-.31-.26 1.48 1.48 0 0 0-.45-.16 1.86 1.86 0 0 0-.5-.03Z"/>
        </g>
      </g>
    </g>
  </g>
  <defs>
    <linearGradient id="c" x1="-2887" y1="-64" x2="-2887" y2="297" gradientUnits="userSpaceOnUse">
      <stop stop-color="#1C202A"/>
      <stop offset=".46" stop-color="#131C2C"/>
    </linearGradient>
    <clipPath id="a">
      <path fill="#fff" d="M0 0h1080v172H0z"/>
    </clipPath>
  </defs>
</svg>
