<svg width="1080" height="355" fill="none" xmlns="http://www.w3.org/2000/svg">
  <g clip-path="url(#a)">
    <mask id="b" style="mask-type:alpha" maskUnits="userSpaceOnUse" x="-7900" y="-58" width="9534" height="496">
      <path d="m1634 276.857-66.21-27.905c-66.21-27.904-198.62-83.714-331.04-55.809-132.42 27.905-264.833 139.523-397.25 148.863-132.417 8.884-264.833-83.372-397.25-93.054-132.417-9.681-264.833 65.491-397.25 83.714-132.4167 18.224-264.833-18.223-397.25-65.149-132.417-46.469-264.833-102.279-397.25-102.279-132.417 0-264.83 55.809-397.25 102.279-132.42 46.926-264.83 83.373-397.25 120.959-132.42 37.585-264.83 74.032-397.25 27.904-132.42-46.128-264.83-177.109-397.25-204.672-132.42-28.247-264.83 46.925-397.25 93.053-132.42 46.129-264.83 65.491-397.25 74.375-132.42 9.339-264.83 9.339-397.25-55.81-132.42-64.693-264.83-195.674-397.25-223.237-132.42-28.2464-264.83 46.925-397.25 46.584-132.42.341-264.83-74.8305-397.25-27.905-132.42 46.47-264.83 213.898-397.25 269.707-132.42 55.81-264.83 0-397.25-55.809-132.42-55.81-264.83-111.619-397.25-120.958-132.42-8.884-264.83 27.562-397.25 37.244-132.42 9.681-264.83-9.682-397.25-27.905-132.42-18.224-264.83-37.586-397.25-65.149-132.42-28.246-264.83-64.6933-397.25-37.13-132.42 28.246-264.83 120.502-331.04 167.428l-66.21 46.47V-58h66.21l331.04.0001h794.5l397.25.0001h794.5l397.25.0001h794.5l397.25.0001h794.5l397.25.0001h794.5l397.25.0001h794.5l397.25.0001h794.5l397.25.0001H1634V276.857Z" fill="#242229"/>
    </mask>
    <g mask="url(#b)">
      <path d="m1634 276.857-66.21-27.905c-66.21-27.904-198.62-83.714-331.04-55.809-132.42 27.905-264.833 139.523-397.25 148.863-132.417 8.884-264.833-83.372-397.25-93.054-132.417-9.681-264.833 65.491-397.25 83.714-132.4167 18.224-264.833-18.223-397.25-65.149-132.417-46.469-264.833-102.279-397.25-102.279-132.417 0-264.83 55.809-397.25 102.279-132.42 46.926-264.83 83.373-397.25 120.959-132.42 37.585-264.83 74.032-397.25 27.904-132.42-46.128-264.83-177.109-397.25-204.672-132.42-28.247-264.83 46.925-397.25 93.053-132.42 46.129-264.83 65.491-397.25 74.375-132.42 9.339-264.83 9.339-397.25-55.81-132.42-64.693-264.83-195.674-397.25-223.237-132.42-28.2465-264.83 46.925-397.25 46.584-132.42.341-264.83-74.8305-397.25-27.905-132.42 46.47-264.83 213.898-397.25 269.707-132.42 55.81-264.83 0-397.25-55.809-132.42-55.81-264.83-111.619-397.25-120.958-132.42-8.884-264.83 27.562-397.25 37.244-132.42 9.681-264.83-9.682-397.25-27.905-132.42-18.224-264.83-37.586-397.25-65.149-132.42-28.246-264.83-64.6933-397.25-37.13-132.42 28.246-264.83 120.502-331.04 167.428l-66.21 46.47V-58h66.21l331.04.0001h794.5l397.25.0001h794.5l397.25.0001h794.5l397.25.0001h794.5l397.25.0001h794.5l397.25.0001h794.5l397.25.0001H45l397.25.0001h1125.54l66.21.0001V276.857Z" fill="url(#c)"/>
      <g opacity=".6" fill="#fff">
        <path opacity=".6" d="M31.0287 213.651c-.1835-.005-.3605-.051-.5085-.131-.1479-.08-.2602-.191-.3223-.318-.0622-.128-.0714-.266-.0266-.397.0449-.131.1418-.249.2783-.34.1366-.09.3067-.149.4885-.167.1818-.019.3671.002.5323.061s.3028.153.3951.27c.0924.117.1353.252.1234.386-.0062.089-.036.175-.0877.255-.0516.08-.1241.151-.2133.21a1.0129 1.0129 0 0 1-.3065.134c-.1131.029-.233.042-.3527.037Zm-11.255-24.504c-.1792-.009-.3508-.057-.4933-.137-.1425-.081-.2494-.191-.3075-.316a.504.504 0 0 1-.0187-.388c.0459-.128.142-.243.2764-.331.1343-.088.3009-.145.4788-.163.1779-.018.3592.002.5211.06.1619.057.2972.148.3889.262.0918.114.1358.245.1266.377-.0156.179-.1265.346-.3086.465-.1821.119-.4206.181-.6637.171Zm354.6903 49.922c-.168-.008-.329-.051-.463-.126-.134-.075-.235-.177-.291-.294-.055-.117-.062-.244-.02-.363.043-.12.132-.228.258-.311.125-.082.281-.135.447-.153.167-.017.337.003.488.056.152.054.278.14.364.246.085.107.126.23.116.354a.4942.4942 0 0 1-.083.237c-.048.074-.116.141-.2.196-.083.055-.181.097-.287.124-.105.027-.217.038-.329.034ZM58.4977 78.6049c-.2301-.0115-.4447-.0894-.5972-.2168-.1525-.1275-.2305-.294-.2172-.4636.0062-.0847.0351-.1677.0849-.2441.0498-.0765.1196-.145.2054-.2015a.9807.9807 0 0 1 .2947-.1281 1.165 1.165 0 0 1 .3388-.0351c.1144.0045.2265.0258.3297.0626.1032.0368.1954.0884.2712.1518.0758.0633.1337.1371.1704.2172a.482.482 0 0 1 .043.2488.514.514 0 0 1-.0849.2441c-.0498.0765-.1196.145-.2054.2015a.9796.9796 0 0 1-.2947.1281 1.1677 1.1677 0 0 1-.3387.0351ZM632.758 116.449a1.0156 1.0156 0 0 1-.303-.055.825.825 0 0 1-.25-.137c-.07-.058-.124-.125-.159-.198a.4441.4441 0 0 1-.042-.228c.005-.077.03-.152.075-.221.045-.07.109-.132.187-.183.078-.051.17-.09.269-.114.099-.025.204-.034.308-.028.103.004.205.023.299.056.093.033.177.08.247.137.069.057.123.123.157.195.035.072.05.149.044.225a.4578.4578 0 0 1-.076.221c-.045.069-.108.131-.185.182a.9135.9135 0 0 1-.266.116c-.098.025-.202.036-.305.032ZM333.005 216.48a1.122 1.122 0 0 1-.329-.062.8963.8963 0 0 1-.272-.152c-.075-.063-.133-.137-.17-.217a.481.481 0 0 1-.043-.249.5082.5082 0 0 1 .085-.244c.05-.077.119-.145.205-.202.086-.056.186-.1.295-.128.109-.028.224-.04.339-.035.114.005.226.026.329.063.104.037.196.088.272.151.075.064.133.138.17.218.037.08.051.164.043.248-.006.085-.035.168-.085.245a.7026.7026 0 0 1-.205.201c-.086.057-.186.1-.295.128-.109.028-.224.04-.339.035Zm197.74-80.075a1.0467 1.0467 0 0 1-.312-.06c-.098-.035-.186-.083-.258-.143-.072-.06-.128-.13-.164-.206a.4586.4586 0 0 1-.043-.235c.006-.08.033-.158.081-.23.047-.071.114-.135.195-.188a.9694.9694 0 0 1 .279-.118c.103-.025.212-.035.32-.028.115-.004.231.01.339.041.108.031.206.078.287.139.082.061.145.133.186.213.041.08.058.165.051.251-.006.085-.038.168-.091.244-.053.076-.128.142-.218.196-.091.053-.196.091-.308.113-.112.021-.229.025-.344.011ZM202.212 257.449a1.1354 1.1354 0 0 1-.327-.062c-.102-.036-.194-.087-.269-.15-.076-.062-.134-.135-.172-.214a.4903.4903 0 0 1-.047-.246.508.508 0 0 1 .085-.24c.049-.075.118-.143.202-.198a.9811.9811 0 0 1 .291-.127c.107-.027.22-.039.334-.034.114.003.226.023.329.059.103.036.195.087.271.149.076.063.134.136.171.216a.472.472 0 0 1 .043.247c-.006.084-.035.165-.084.241-.049.075-.118.143-.203.198-.084.056-.183.099-.29.127a1.164 1.164 0 0 1-.334.034ZM717.984 49.5794a1.0138 1.0138 0 0 1-.298-.0545c-.093-.0326-.177-.0786-.246-.1353s-.122-.1229-.156-.1949a.429.429 0 0 1-.041-.2241c.016-.1512.111-.292.265-.3923.154-.1003.356-.1523.561-.1449.104.0035.205.022.298.0546.094.0326.178.0786.247.1352.069.0567.122.123.156.1949a.45.45 0 0 1 .041.2241c-.006.0753-.033.149-.078.2168-.044.0678-.107.1283-.184.1783a.8766.8766 0 0 1-.263.1125 1.0374 1.0374 0 0 1-.302.0296ZM384.649 119.878c-.233-.012-.451-.09-.605-.22-.155-.129-.234-.297-.221-.469.006-.085.035-.167.085-.243.05-.076.12-.144.206-.2a.9669.9669 0 0 1 .295-.126c.108-.027.223-.037.338-.031.115.004.227.026.331.062.104.037.197.088.274.152.076.063.135.137.173.217.038.08.055.164.048.249-.016.17-.121.329-.294.443-.172.114-.398.173-.63.166Zm-157.351 48.785c-.18-.008-.353-.054-.498-.135-.144-.08-.253-.19-.312-.315-.059-.126-.067-.262-.021-.391.045-.128.142-.244.277-.332.136-.089.303-.145.482-.163.179-.018.362.004.524.062.162.059.297.151.388.267.09.115.132.247.12.38-.015.176-.125.341-.305.459-.179.117-.415.177-.655.168Zm306.474-75.5006c-.226-.0138-.435-.0914-.585-.2166-.15-.1252-.227-.2883-.217-.4549a.4952.4952 0 0 1 .083-.2373c.048-.0743.116-.1408.2-.1957a.9577.9577 0 0 1 .287-.1242c.105-.0271.217-.0385.329-.0337.227.0093.44.084.592.2081.153.124.232.2873.223.4544-.016.1679-.12.3245-.29.4366-.171.1121-.394.1707-.622.1633ZM220.151 34.5116c-.222-.0137-.429-.0904-.576-.2139-.147-.1236-.224-.2844-.214-.4486a.5046.5046 0 0 1 .083-.2339c.048-.0732.115-.1387.197-.1928.082-.054.179-.0956.283-.1222.104-.0267.215-.0379.325-.0331.111.0035.22.0232.321.058a.8734.8734 0 0 1 .266.145c.074.0608.132.132.169.2094a.4743.4743 0 0 1 .046.2412c-.006.0824-.035.163-.083.2373-.049.0743-.117.1408-.2.1957a.9577.9577 0 0 1-.287.1242 1.14 1.14 0 0 1-.33.0337ZM137.574 236.956c-.245-.014-.473-.097-.636-.233-.163-.135-.249-.312-.239-.492.012-.134.078-.262.189-.369.111-.106.262-.186.434-.23.172-.043.358-.048.534-.014.176.034.334.106.455.206.121.1.199.225.225.357.025.133-.004.269-.082.389-.079.121-.204.222-.361.291-.156.068-.337.101-.519.095ZM381.307 52.0952c-.228-.0115-.441-.0882-.593-.2136-.152-.1255-.231-.2898-.221-.4578.006-.0847.035-.1677.084-.2442.05-.0764.12-.1449.206-.2015a.9828.9828 0 0 1 .295-.1281 1.157 1.157 0 0 1 .338-.035c.23.0115.445.0894.597.2168.153.1274.231.294.218.4636-.016.1694-.122.3275-.295.4398-.173.1124-.399.1699-.629.16Zm-116.95 24.173c-.224-.0115-.432-.0875-.58-.2116-.148-.124-.223-.2861-.21-.4509.006-.0812.034-.1607.082-.2339.048-.0732.115-.1387.198-.1928a.935.935 0 0 1 .282-.1222 1.123 1.123 0 0 1 .325-.0331c.112.0035.221.0232.322.058.1.0349.191.0841.265.145.075.0608.133.132.169.2093a.4758.4758 0 0 1 .047.2413.5168.5168 0 0 1-.083.2373c-.049.0743-.117.1408-.201.1957-.083.0549-.181.0971-.286.1242a1.14 1.14 0 0 1-.33.0337ZM597.765 204.707c-.218-.011-.422-.085-.567-.206-.145-.12-.221-.278-.211-.438.016-.161.116-.311.279-.418.164-.107.378-.163.596-.155.219.009.424.082.57.203.146.121.221.28.208.441-.013.162-.112.313-.276.42-.164.108-.38.163-.599.153Zm65.318-51.041c-.171-.007-.335-.052-.471-.128-.136-.076-.239-.18-.294-.299a.4806.4806 0 0 1-.019-.37c.044-.122.136-.231.264-.314.129-.084.288-.137.457-.153.17-.017.342.004.496.06.153.056.281.144.366.253.085.109.124.235.112.361-.015.167-.12.322-.29.433-.171.111-.394.167-.621.157ZM414.419 41.9902c.35-.2302.381-.6264.069-.8848-.313-.2584-.851-.2812-1.201-.051-.351.2303-.382.6264-.07.8848.313.2585.851.2813 1.202.051ZM582.195 170.775c-.151-.007-.295-.047-.416-.115-.12-.067-.21-.16-.259-.265-.048-.106-.054-.22-.015-.327.039-.108.121-.205.234-.279.114-.073.254-.121.404-.135.15-.015.303.003.439.052.136.049.249.127.325.223.076.096.112.207.103.318a.4705.4705 0 0 1-.077.214c-.044.066-.106.126-.182.175a.8523.8523 0 0 1-.259.111c-.095.024-.196.033-.297.028ZM511.42 183.56c-.173-.007-.339-.052-.478-.129-.138-.077-.242-.183-.299-.304-.056-.121-.063-.251-.019-.375.045-.123.138-.234.268-.319.13-.084.291-.138.463-.155.172-.017.347.004.503.061.155.056.284.145.371.256.087.111.126.238.115.365-.006.085-.035.167-.085.243-.05.076-.12.144-.206.2a.9776.9776 0 0 1-.295.126c-.109.027-.224.037-.338.031Zm38.299-33.358c-.234-.012-.451-.091-.606-.22-.155-.129-.234-.298-.221-.47.016-.172.122-.334.297-.449.175-.115.404-.176.639-.168.235.01.455.089.611.219.157.131.236.301.222.474-.015.174-.122.336-.299.451-.177.115-.408.173-.643.163Zm-160.998 1.119c-.181-.006-.356-.051-.502-.13-.145-.079-.256-.189-.317-.314-.062-.126-.071-.262-.026-.392.044-.129.14-.246.275-.335.135-.089.302-.147.482-.165.179-.019.362.003.525.061.163.058.299.151.39.267.091.115.133.248.121.381-.004.087-.033.173-.083.253-.051.079-.122.15-.211.208-.088.059-.192.103-.304.132-.112.028-.231.04-.35.034Zm294.271-27.172a1.164 1.164 0 0 1-.336-.064c-.106-.037-.2-.089-.278-.153-.078-.064-.138-.139-.176-.22a.499.499 0 0 1-.049-.253c.006-.085.036-.169.086-.246.051-.077.122-.146.209-.203.087-.056.188-.1.299-.127.11-.028.226-.039.342-.033.124-.004.248.011.364.044.116.033.221.084.308.149.088.065.156.142.2.228.044.085.064.177.057.268-.007.092-.04.181-.097.262-.056.082-.136.154-.232.211-.097.057-.209.099-.329.123-.12.023-.246.028-.368.014ZM557.607 231.288c-.233-.011-.451-.09-.606-.219-.155-.129-.234-.298-.221-.47.019-.17.127-.328.302-.44.175-.112.403-.17.634-.16.115.005.227.026.33.063.103.037.195.088.271.152.076.063.134.137.171.217.036.08.051.164.043.249-.016.17-.121.329-.294.443-.173.113-.399.173-.63.165ZM242.017 39.4447c-.487-.0186-.944-.1772-1.274-.4418-.329-.2646-.505-.6139-.488-.9728.012-.1796.073-.3556.178-.5178s.253-.3075.435-.4274c.182-.1198.395-.212.625-.271.231-.0591.475-.0839.719-.073.491.0208.951.1842 1.279.4544.328.2701.497.6251.471.987-.04.3546-.265.684-.628.9193-.362.2353-.834.3582-1.317.3431Zm-79.028 35.758a1.203 1.203 0 0 1-.353-.066c-.11-.0391-.209-.094-.291-.1615-.081-.0675-.143-.1463-.183-.2317a.5156.5156 0 0 1-.048-.266c.006-.0905.037-.1793.09-.2612s.127-.1553.218-.216c.092-.0607.199-.1076.315-.1378.116-.0303.239-.0434.362-.0385.249.0115.482.0951.648.2326.166.1375.252.3177.239.5015-.008.0906-.04.1792-.094.2607-.054.0815-.13.1542-.223.2141-.092.0599-.2.1057-.317.1349a1.248 1.248 0 0 1-.363.0349Zm236.642 1.8971c.381-.25.415-.6801.076-.9607-.34-.2805-.924-.3054-1.305-.0554-.381.25-.414.6801-.075.9607.34.2806.923.3054 1.304.0554Zm-129.513 9.6344a1.0723 1.0723 0 0 1-.313-.0597c-.097-.0349-.185-.0837-.257-.1436-.073-.0599-.128-.1297-.164-.2054a.475.475 0 0 1-.044-.2359c.013-.1599.111-.3097.272-.417.162-.1073.374-.1633.591-.156.109.0046.215.0249.313.0598s.186.0837.258.1436c.072.0599.128.1297.163.2054a.4536.4536 0 0 1 .044.2358c-.012.16-.11.3098-.272.4171-.161.1072-.373.1633-.591.1559ZM676.064 287.289c-.379-.016-.743-.115-1.046-.283-.303-.169-.531-.4-.656-.664-.124-.264-.14-.549-.045-.82.095-.271.297-.514.581-.701.283-.186.635-.306 1.01-.345.376-.039.759.005 1.101.126.342.122.628.315.821.556.193.24.284.518.264.797-.014.186-.078.368-.188.536-.109.167-.263.318-.451.441-.189.124-.409.22-.648.281a2.559 2.559 0 0 1-.743.076ZM70.8709 20.8673c-.255-.0102-.5047-.0576-.7347-.1394-.23-.0818-.4357-.1963-.6053-.337-.1695-.1407-.2995-.3048-.3824-.4827-.083-.1779-.1172-.3662-.1008-.5539.014-.1882.0783-.3726.1891-.5424.1109-.1699.2662-.322.457-.4476.1909-.1256.4135-.2222.6551-.2843a2.5933 2.5933 0 0 1 .7529-.0776c.515.0253.9955.1995 1.337.4845.3414.2851.5162.658.4862 1.0375-.0313.3785-.2651.7325-.6502.9842-.385.2518-.8899.3808-1.4039.3587ZM202.26 34.1356a1.1762 1.1762 0 0 1-.348-.0653c-.109-.0387-.207-.0929-.287-.1595-.08-.0667-.142-.1445-.181-.2289a.5123.5123 0 0 1-.047-.2625c.006-.0894.037-.177.089-.2578.052-.0808.125-.1532.216-.2131.09-.0599.196-.1061.31-.1359.115-.0298.236-.0426.358-.0378.245.0138.473.0971.636.2324.163.1352.249.3119.239.4928-.008.0894-.04.1768-.093.2572-.054.0804-.129.1522-.22.2113-.092.059-.198.1042-.313.1329a1.2377 1.2377 0 0 1-.359.0342ZM686.14 181.224c-.132.003-.264-.013-.387-.049-.123-.036-.234-.09-.327-.16s-.165-.153-.211-.244a.5245.5245 0 0 1-.059-.286c.008-.097.043-.192.103-.279.061-.086.145-.163.248-.224.103-.061.222-.106.35-.131.128-.025.262-.03.392-.015.132-.004.264.013.387.049.123.036.234.09.327.16.093.069.165.152.211.243.047.092.067.189.059.286-.008.097-.043.192-.103.279-.061.087-.145.163-.248.224-.103.061-.222.106-.35.131-.128.025-.262.031-.392.016ZM220.042 67.7898a1.0426 1.0426 0 0 1-.307-.056.8222.8222 0 0 1-.254-.1391c-.072-.0583-.126-.1266-.161-.2007a.446.446 0 0 1-.044-.231c.013-.1599.111-.3097.272-.417.162-.1072.374-.1633.591-.1559.215.0115.416.0843.559.2031.143.1187.217.2739.207.4325a.4755.4755 0 0 1-.08.227c-.047.0711-.112.1346-.192.187a.9297.9297 0 0 1-.275.1184 1.0957 1.0957 0 0 1-.316.0317Zm185.647 27.9868c-.225-.0102-.445-.0531-.647-.1264-.202-.0732-.382-.1752-.53-.3001-.148-.1249-.261-.2702-.333-.4275-.071-.1573-.099-.3235-.083-.4889.026-.331.228-.6412.563-.8626.334-.2215.775-.3363 1.224-.3192.224.0092.443.0507.644.1223.202.0716.383.1718.532.2949.149.1231.263.2667.337.4225.074.1557.105.3207.092.4853-.01.1663-.064.3295-.16.4802-.096.1506-.231.2857-.399.3974-.167.1117-.363.1977-.576.253a2.2668 2.2668 0 0 1-.664.0691ZM14.8026 264.808a1.252 1.252 0 0 1-.3737-.066c-.1173-.04-.2222-.098-.3085-.169-.0862-.071-.1521-.154-.1936-.245a.5335.5335 0 0 1-.0479-.281c.037-.178.1629-.339.3529-.453.1901-.114.4308-.171.6752-.161.2443.01.4748.087.6465.215.1717.129.2724.3.2822.48-.0062.095-.0379.188-.0934.274-.0555.085-.1336.162-.2297.226-.0962.063-.2084.111-.3303.143-.1219.031-.251.043-.3797.037ZM403.938 100.011a1.2136 1.2136 0 0 1-.359-.0662c-.112-.0394-.214-.0948-.297-.163-.084-.0682-.148-.1479-.19-.2345-.041-.0865-.06-.1783-.053-.2701.016-.1837.129-.3554.316-.4778.186-.1224.431-.1855.681-.1757.124.0046.246.0272.359.0666.113.0394.214.0948.297.163.084.0682.148.1478.19.2344.042.0866.06.1784.053.2701-.006.0914-.037.1809-.091.2634-.053.0826-.129.1564-.221.2172a1.0521 1.0521 0 0 1-.319.1372 1.2618 1.2618 0 0 1-.366.0354Zm25.318 4.217c-.21-.008-.416-.046-.606-.113s-.36-.162-.5-.277c-.14-.116-.248-.251-.317-.398-.068-.146-.097-.301-.084-.456.012-.154.066-.305.158-.444.091-.139.219-.263.376-.365.157-.103.34-.181.538-.231.199-.05.408-.071.617-.061.211.008.417.046.607.113s.359.161.5.277c.14.116.247.251.316.397.069.147.098.302.085.457-.013.154-.066.305-.158.444s-.22.263-.377.365c-.157.102-.34.181-.538.231-.198.05-.408.071-.617.061Zm-79.295 134.554a1.2172 1.2172 0 0 1-.359-.07.9739.9739 0 0 1-.295-.166c-.082-.069-.145-.149-.185-.236a.5343.5343 0 0 1-.049-.271c-.005-.097.018-.194.066-.285.049-.091.123-.173.218-.241.094-.068.207-.121.331-.155.123-.035.256-.049.388-.044.132.006.261.032.378.076.118.045.222.107.305.183.083.076.143.164.177.258.035.094.042.192.021.289-.006.091-.037.181-.09.264-.054.083-.129.158-.221.219-.093.062-.201.109-.319.14-.117.031-.242.044-.366.039Zm20.589-127.159c-.252-.011-.489-.096-.657-.235-.168-.139-.255-.322-.242-.508.015-.186.13-.36.319-.484s.437-.188.69-.178c.126.004.249.027.364.067.114.04.216.096.301.165.084.069.15.15.192.237.042.088.061.181.054.274a.5616.5616 0 0 1-.096.267c-.055.084-.133.159-.227.22-.095.062-.206.109-.325.139-.12.03-.247.042-.373.036Zm170.089 121.948c-.242-.027-.461-.12-.615-.26-.155-.14-.232-.317-.219-.497.014-.18.118-.35.293-.476.174-.127.406-.201.651-.208.137-.004.274.013.401.05.128.037.244.094.34.166.096.072.171.158.219.253.049.094.07.195.062.296-.007.101-.044.2-.106.29-.063.09-.15.169-.257.233-.106.064-.23.11-.362.137a1.322 1.322 0 0 1-.407.016Zm-175.57 49.439c-.255-.012-.493-.098-.662-.239-.168-.141-.254-.326-.238-.513.016-.188.133-.363.324-.487.192-.125.443-.188.697-.176.255.012.493.098.661.239.169.141.255.326.239.513-.017.188-.133.363-.325.487-.191.124-.442.188-.696.176ZM225.986 46.0878c-.211-.0093-.408-.0793-.549-.1949-.141-.1157-.215-.2676-.205-.4229.006-.0764.033-.1513.078-.2201a.6456.6456 0 0 1 .187-.1812.8909.8909 0 0 1 .267-.1145c.099-.0249.203-.0352.307-.0303.21.0092.408.0793.549.1949.141.1156.214.2676.204.4229-.006.0764-.033.1512-.078.2201a.6456.6456 0 0 1-.187.1812.8934.8934 0 0 1-.267.1145 1.0615 1.0615 0 0 1-.306.0303ZM153.557 111.82c-.207-.008-.41-.046-.597-.112-.186-.066-.354-.159-.492-.273-.138-.114-.243-.247-.311-.392-.068-.144-.096-.297-.082-.449.01-.153.062-.302.152-.44s.216-.261.371-.362c.154-.102.335-.18.531-.23.196-.049.404-.07.611-.06.409.025.789.167 1.057.397.269.229.404.527.377.829-.022.302-.204.585-.506.789-.302.204-.701.313-1.111.303Zm4.704 19.733c-.192-.009-.375-.06-.528-.146-.153-.086-.267-.204-.329-.338a.5345.5345 0 0 1-.02-.415c.049-.137.152-.26.296-.353.144-.094.323-.154.513-.173.191-.019.385.004.557.066.173.062.317.161.414.283.096.122.142.263.13.404-.018.189-.137.366-.33.491-.193.126-.446.191-.703.181ZM404.34 328.204c-.272-.014-.526-.106-.706-.257-.18-.151-.271-.348-.255-.549.039-.187.171-.358.372-.477.2-.12.454-.18.711-.168.257.011.499.092.679.228.18.137.284.317.292.507-.018.201-.143.389-.348.523-.204.133-.472.203-.745.193ZM216.25 100.137c-.258-.014-.499-.101-.671-.2432-.172-.142-.263-.3277-.253-.5181.006-.0949.038-.1879.094-.2737.055-.0857.133-.1625.229-.2258.096-.0634.209-.112.331-.143.122-.0311.251-.0439.379-.0379.129.0046.255.0279.372.0688.116.0409.221.0984.307.1692.086.0708.151.1535.194.2433a.5473.5473 0 0 1 .051.2797c-.019.19-.137.3672-.33.4941-.192.1266-.445.1936-.703.1866Zm-54.695 211.907c-.303-.013-.593-.091-.835-.226s-.424-.319-.524-.53c-.099-.211-.111-.439-.035-.655.077-.216.239-.411.466-.559.226-.148.508-.243.808-.274.301-.03.606.006.879.104.272.098.499.253.652.446.153.193.224.415.206.638-.025.297-.21.576-.513.774-.303.198-.7.299-1.104.282Zm65.792-36.394c-.141.005-.281-.013-.411-.051-.131-.038-.25-.096-.349-.169-.098-.074-.175-.162-.225-.259a.5729.5729 0 0 1-.064-.304c.008-.103.045-.204.109-.296.063-.093.153-.174.262-.239.109-.066.235-.114.371-.141.135-.027.277-.033.416-.018.141-.004.281.013.412.051.13.038.249.096.348.17.098.073.175.162.225.258.05.097.071.201.064.304-.008.103-.045.205-.109.297-.063.092-.153.174-.262.239-.109.065-.235.113-.371.14-.135.028-.277.034-.416.018Zm247.962-31.595a1.342 1.342 0 0 1-.416-.051c-.132-.039-.252-.097-.352-.172-.1-.074-.178-.163-.228-.261a.5692.5692 0 0 1-.065-.308c.007-.104.045-.206.109-.3.065-.093.155-.176.265-.242.11-.066.238-.115.375-.142.137-.028.281-.034.422-.019.251.028.479.124.639.269.161.145.242.329.229.515-.014.187-.122.364-.302.495-.181.132-.422.209-.676.216Zm-152.295-5.112c-.204-.007-.401-.059-.565-.149-.165-.09-.289-.214-.358-.356-.068-.142-.078-.296-.028-.442.051-.146.159-.278.311-.379.152-.101.342-.166.544-.187.203-.022.41.002.594.067.185.066.339.17.443.3.104.13.153.279.141.43-.016.2-.138.388-.341.522-.202.134-.469.204-.741.194ZM128.92 53.8679a1.02 1.02 0 0 1-.298-.0577c-.094-.0336-.178-.0804-.246-.1378-.069-.0574-.122-.1242-.156-.1967a.4345.4345 0 0 1-.041-.2256c.006-.0765.033-.1513.078-.2201a.6456.6456 0 0 1 .187-.1812.8909.8909 0 0 1 .267-.1145c.099-.0249.203-.0352.307-.0303.104.0034.206.0222.301.0553.094.0332.178.08.247.1376.07.0577.122.125.155.198.034.073.046.1501.038.2268-.004.0769-.03.1523-.075.2218-.045.0694-.109.1315-.187.1825a.866.866 0 0 1-.269.1141 1.0369 1.0369 0 0 1-.308.0278Zm84.376-1.3877a1.0092 1.0092 0 0 1-.294-.057.802.802 0 0 1-.242-.1359c-.068-.0565-.12-.1224-.153-.1938a.4416.4416 0 0 1-.04-.2221.4625.4625 0 0 1 .074-.2195c.044-.0689.107-.1305.184-.1813a.8765.8765 0 0 1 .264-.1149 1.041 1.041 0 0 1 .305-.0304c.102.0045.202.0239.294.057a.8017.8017 0 0 1 .242.1358c.068.0566.12.1224.153.1938a.4421.4421 0 0 1 .04.2222.4628.4628 0 0 1-.074.2195c-.044.0688-.107.1304-.184.1813a.8763.8763 0 0 1-.264.1148 1.041 1.041 0 0 1-.305.0305Zm293.141-20.6455c-.379-.0162-.733-.142-.986-.35-.253-.2081-.383-.4814-.363-.7602.01-.1376.058-.2723.14-.3964.081-.124.195-.235.336-.3265.14-.0915.303-.1617.48-.2066a1.895 1.895 0 0 1 .551-.0553c.187.008.369.0431.538.1033.168.0601.319.1442.443.2473.124.1032.22.2233.281.3537a.8008.8008 0 0 1 .075.4059c-.01.1372-.056.2717-.136.3957-.081.124-.194.2351-.333.3267-.139.0916-.301.1619-.477.207-.176.045-.363.0639-.549.0554ZM101.172 63.734a1.8547 1.8547 0 0 1-.543-.1039c-.17-.0606-.322-.1454-.447-.2493-.125-.104-.2217-.2252-.2834-.3566-.0616-.1314-.0874-.2705-.0759-.4093.0109-.1388.0588-.2747.1411-.3998.0822-.1252.1972-.2371.3382-.3295.141-.0923.306-.1632.484-.2086a1.919 1.919 0 0 1 .556-.0559c.188.008.373.0433.543.1039.17.0606.322.1454.447.2493.125.104.222.2252.283.3566.062.1314.088.2705.076.4093-.011.1388-.059.2747-.141.3999-.082.1251-.197.237-.338.3294-.142.0923-.306.1632-.484.2086a1.919 1.919 0 0 1-.556.0559Zm446.796 21.514a1.2805 1.2805 0 0 1-.376-.0695c-.118-.0413-.223-.0995-.31-.1711-.088-.0717-.154-.1554-.197-.2463a.5398.5398 0 0 1-.052-.283c.006-.0965.038-.1911.094-.2784.056-.0873.134-.1657.231-.2305.098-.0649.211-.115.334-.1475.124-.0325.255-.0468.386-.042.263.0204.505.1163.674.2671.168.1508.249.3443.225.5387-.027.1828-.145.3517-.331.4741-.187.1224-.428.1895-.678.1884Zm37.922-35.0956a.946.946 0 0 1-.276-.0543.743.743 0 0 1-.226-.128.5333.5333 0 0 1-.142-.1822.4102.4102 0 0 1-.037-.2085.4336.4336 0 0 1 .07-.2036.575.575 0 0 1 .17-.1685.8156.8156 0 0 1 .244-.1078.974.974 0 0 1 .282-.0304.9436.9436 0 0 1 .285.0566c.089.033.168.079.231.1351a.5204.5204 0 0 1 .14.1916.4034.4034 0 0 1 .025.2166c-.021.1368-.112.2627-.254.3524-.142.0896-.325.1364-.512.131ZM735.997 172.906c-.272-.009-.534-.078-.753-.197-.219-.119-.385-.284-.477-.473-.092-.189-.105-.394-.038-.589.067-.194.211-.37.414-.504.202-.134.455-.221.724-.249.27-.028.545.003.791.091.245.087.45.226.588.399.137.173.202.373.185.573-.022.265-.184.514-.453.691-.268.178-.62.271-.981.258ZM373.236 51.0298a1.7993 1.7993 0 0 1-.528-.0987c-.165-.0583-.313-.1402-.435-.241-.122-.1007-.216-.2183-.276-.346-.06-.1276-.085-.2628-.073-.3976.009-.1349.055-.2671.134-.3889.079-.1218.19-.2309.327-.3208.137-.0899.296-.159.47-.2031.173-.0442.356-.0626.539-.0541.184.0069.363.0404.528.0987.166.0583.314.1402.436.241s.216.2184.276.346c.06.1277.085.2628.073.3976-.025.2708-.193.5235-.468.7043-.275.1807-.635.275-1.003.2626Zm-115.807 5.5151c-.263-.0138-.509-.1031-.684-.2488-.175-.1456-.265-.3359-.252-.5301a.5853.5853 0 0 1 .099-.2778c.057-.0869.137-.1646.236-.2287.098-.064.212-.1132.336-.1445.124-.0314.256-.0445.387-.0384.13.0045.258.0282.376.0695s.223.0995.31.1711c.088.0717.154.1554.197.2462a.5401.5401 0 0 1 .052.2831c-.015.1956-.135.3787-.333.5095-.198.1308-.458.1986-.724.1889Zm194.957-1.916c-.198-.0092-.383-.0755-.515-.1844-.132-.1089-.2-.2517-.19-.3975.006-.0718.032-.142.075-.2065s.103-.1222.176-.1696a.8458.8458 0 0 1 .251-.1067.9963.9963 0 0 1 .288-.0276c.195.0093.376.0746.506.1818.13.1073.197.2478.187.3912a.4457.4457 0 0 1-.07.2071c-.042.0649-.101.1232-.173.1714a.8298.8298 0 0 1-.248.1097.9911.9911 0 0 1-.287.0311Zm109.183 7.2877a1.298 1.298 0 0 1-.381-.0702c-.119-.0418-.226-.1006-.314-.1731-.089-.0725-.156-.1572-.2-.2491a.5635.5635 0 0 1-.053-.2865c.006-.0973.039-.1926.095-.2806.057-.0879.137-.1667.235-.2316.099-.065.214-.115.339-.1469.124-.032.257-.0453.389-.0393.132.0046.261.0285.38.0702.12.0418.227.1006.315.1731.088.0725.156.1572.199.2491.044.092.062.1894.054.2866a.5915.5915 0 0 1-.096.2805c-.056.0879-.136.1667-.235.2317-.098.065-.213.1149-.338.1468-.125.032-.257.0453-.389.0393ZM69.3516 126.951a1.08 1.08 0 0 1-.3128-.06.8506.8506 0 0 1-.2578-.144c-.0723-.059-.1278-.129-.1634-.205a.4638.4638 0 0 1-.0439-.236c.0129-.161.1124-.312.2765-.42.1641-.107.3794-.162.5986-.153.2192.01.4243.083.5702.204.1459.121.2206.279.2077.441-.0062.08-.0338.158-.0811.23-.0474.072-.1136.137-.1949.19a.9286.9286 0 0 1-.2789.12 1.0712 1.0712 0 0 1-.3202.033ZM53.5873 308.579a1.4611 1.4611 0 0 1-.4304-.084c-.1344-.049-.2544-.117-.3528-.2-.0984-.084-.1733-.18-.2204-.285a.6316.6316 0 0 1-.0538-.326c.0194-.161.1026-.314.2392-.441.1367-.126.3208-.22.5295-.27.2086-.05.4326-.053.644-.01.2113.043.4008.131.5448.253.144.122.2361.272.2649.433.0288.16-.007.323-.1029.468-.096.145-.2478.266-.4366.349-.1889.082-.4064.121-.6255.113Zm635.3237-11.997c-.209-.009-.409-.063-.576-.156-.166-.093-.292-.22-.36-.366-.069-.145-.078-.302-.025-.451.052-.149.164-.283.32-.386.156-.102.35-.168.556-.19.207-.021.418.003.607.07.188.067.345.173.451.306.106.133.157.285.145.439-.008.103-.043.203-.103.295-.061.092-.145.175-.249.243-.104.068-.225.121-.357.155-.131.033-.27.047-.409.041ZM485.665 41.0025a.8608.8608 0 0 1-.256-.0484.6788.6788 0 0 1-.211-.1178c-.059-.0492-.104-.1065-.132-.1687a.3625.3625 0 0 1-.033-.1933c.004-.0659.027-.1304.065-.19a.5523.5523 0 0 1 .16-.1569.7543.7543 0 0 1 .228-.0999.9123.9123 0 0 1 .264-.0277c.18.0114.348.0736.468.1736.12.1.183.2302.176.3636a.4027.4027 0 0 1-.07.1893.554.554 0 0 1-.163.1551.7764.7764 0 0 1-.232.097.9073.9073 0 0 1-.264.0241ZM147.347 116.556c-.204-.02-.388-.097-.515-.216s-.187-.269-.166-.419c.013-.155.108-.299.266-.401.157-.103.363-.155.573-.145.209.009.405.08.544.195.139.116.21.268.197.422-.002.083-.028.163-.076.238-.048.074-.117.14-.202.193-.085.054-.184.093-.291.116-.107.023-.22.029-.33.017Zm363.441-61.6496c-.363-.0162-.703-.137-.947-.3363-.243-.1994-.37-.4613-.354-.7291.025-.2684.192-.5189.465-.6979.272-.179.629-.2724.994-.2601.363.0185.702.1415.943.3426.241.201.365.4639.345.7318-.009.1325-.054.2624-.132.3821-.078.1196-.187.2267-.322.315-.134.0883-.291.156-.462.1992-.17.0433-.35.0612-.53.0527ZM55.5077 257.503a1.4612 1.4612 0 0 1-.4489-.058c-.1425-.042-.2716-.106-.3791-.187-.1074-.08-.1908-.177-.2449-.283-.054-.106-.0776-.219-.0691-.331.0085-.113.0488-.224.1183-.325.0696-.1.1669-.19.2858-.261.1188-.072.2566-.124.4046-.155.148-.03.3029-.037.4548-.021.2734.03.5221.133.697.291.1749.157.2635.357.2482.56-.0152.204-.1331.395-.3306.538-.1974.142-.46.225-.7361.232ZM372.349 103.584c-.188-.01-.364-.073-.489-.177s-.189-.24-.179-.378c.004-.069.028-.137.068-.199.041-.063.098-.118.168-.164.07-.046.152-.081.241-.104a.945.945 0 0 1 .276-.026c.094.004.186.021.27.051.085.029.161.071.223.123.062.052.11.112.14.178.03.065.042.134.036.203-.013.139-.099.268-.24.36-.141.092-.326.14-.514.133Zm390.424 9.248c-.349-.025-.671-.149-.898-.347-.227-.197-.341-.451-.317-.709.031-.259.199-.498.467-.665.269-.168.616-.251.967-.231.349.023.671.146.898.341.227.196.341.45.318.707-.028.26-.195.501-.464.67-.269.17-.618.254-.971.234ZM19.2389 282.956c-.2284-.009-.4479-.068-.6307-.169-.1829-.102-.3208-.241-.3963-.4-.0755-.159-.0851-.331-.0278-.494.0574-.163.1793-.31.3501-.422.1709-.112.3831-.184.6096-.207.2266-.023.4574.004.6631.078.2056.073.377.19.4923.336.1153.145.1693.313.1552.481-.0188.224-.1572.434-.3849.583-.2277.149-.5262.226-.8306.214ZM382.291 80.8431a.8954.8954 0 0 1-.265-.0497.7289.7289 0 0 1-.219-.1217.508.508 0 0 1-.137-.1745.3887.3887 0 0 1-.035-.2002c.013-.1338.096-.2586.233-.3474.136-.0888.315-.1345.496-.1271a.901.901 0 0 1 .263.0489.7218.7218 0 0 1 .217.1194c.061.0499.108.1081.138.1714a.3814.3814 0 0 1 .039.1975c-.013.1345-.096.2602-.232.3505-.136.0902-.315.1379-.498.1329ZM239.586 143.836c-.151-.005-.297-.044-.419-.111s-.214-.159-.265-.264c-.05-.106-.057-.22-.019-.328.037-.109.118-.206.231-.281.113-.074.254-.122.404-.138.151-.015.304.002.441.051.136.049.25.127.327.223.076.097.112.208.103.32-.005.074-.03.146-.073.213a.6069.6069 0 0 1-.178.175.8513.8513 0 0 1-.257.111 1 1 0 0 1-.295.029Zm-7.73-45.5077c-.198-.0093-.382-.0755-.514-.1845-.132-.1089-.201-.2517-.191-.3975a.4487.4487 0 0 1 .071-.2105.6092.6092 0 0 1 .176-.1743.8354.8354 0 0 1 .252-.1116c.093-.0246.192-.0354.291-.0318.201.0092.389.0764.523.187.135.1106.204.2557.194.4039a.44.44 0 0 1-.075.2099c-.044.0656-.105.1242-.179.1725a.86.86 0 0 1-.256.1086 1.0033 1.0033 0 0 1-.292.0283Zm-50.89 14.7997c-.195-.01-.377-.075-.506-.182-.13-.108-.197-.248-.187-.391.006-.071.031-.14.074-.204.042-.063.101-.12.173-.166a.8354.8354 0 0 1 .248-.105.9556.9556 0 0 1 .283-.027c.096.004.189.021.276.051.087.03.165.073.229.125.064.053.114.114.146.18a.425.425 0 0 1 .042.208.428.428 0 0 1-.071.206c-.042.064-.1.122-.173.17a.8227.8227 0 0 1-.249.107c-.091.023-.189.032-.285.028ZM55.3376 190.391c-.1642-.005-.3224-.047-.4543-.119-.132-.072-.2317-.172-.2864-.286-.0547-.114-.062-.238-.0209-.355.0411-.117.1287-.223.2517-.303.1229-.08.2756-.132.4385-.148a1.102 1.102 0 0 1 .476.057c.1474.054.2697.139.3514.244.0816.105.1188.226.1069.346-.0045.08-.0307.157-.0769.229-.0463.072-.1116.136-.1921.188a.8876.8876 0 0 1-.2766.118c-.1021.026-.21.035-.3173.029ZM304.199 24.8335c-.191-.0092-.37-.0736-.497-.1791-.128-.1056-.193-.2439-.183-.3849.004-.0702.028-.139.069-.2024.041-.0634.099-.1201.17-.1668a.818.818 0 0 1 .245-.1052.9656.9656 0 0 1 .281-.027.9275.9275 0 0 1 .275.0511c.086.0304.163.073.227.1256.063.0525.111.1138.142.1803a.3947.3947 0 0 1 .037.207c-.016.1401-.104.2704-.246.3638-.143.0934-.329.1427-.52.1376ZM17.1848 23.4279a.9602.9602 0 0 1-.2811-.0517.7692.7692 0 0 1-.2327-.127c-.0655-.0533-.1161-.1155-.1489-.1831a.4164.4164 0 0 1-.0422-.2112c.0125-.1456.1025-.2818.2503-.379.1479-.0972.3418-.1476.5397-.1402a.9562.9562 0 0 1 .2803.0549.762.762 0 0 1 .2302.13c.0644.0541.1137.117.1449.1851a.414.414 0 0 1 .0374.2119.4277.4277 0 0 1-.0703.2058c-.0418.0645-.1006.1222-.1731.1697a.8207.8207 0 0 1-.2488.1071.974.974 0 0 1-.2857.0277Z"/>
        <path opacity=".6" d="M57.4646 79.2764c-.3482-.0272-.6687-.1521-.8951-.3489-.2263-.1967-.3411-.4501-.3204-.7076.0369-.2548.2048-.4896.4692-.6561.2645-.1664.6055-.252.9529-.2392.3364.0224.6491.137.8764.321.2272.1839.3526.424.3512.6728-.0078.1325-.0511.2626-.1276.3827-.0765.12-.1846.2278-.318.3169-.1334.089-.2894.1578-.4591.2021a1.8142 1.8142 0 0 1-.5295.0563ZM170.549 55.5063a1.3653 1.3653 0 0 1-.403-.0769c-.126-.0451-.239-.1082-.332-.1857-.092-.0775-.163-.1678-.208-.2656a.5882.5882 0 0 1-.053-.3044c.007-.1024.042-.2026.103-.2949.06-.0923.145-.175.249-.2432.104-.0682.225-.1206.356-.1543.132-.0336.271-.0478.41-.0418.14.0046.277.0296.404.0736s.24.1062.334.1828c.094.0767.166.1663.213.2637a.5986.5986 0 0 1 .058.3036c-.008.1035-.044.2049-.105.2983-.061.0934-.146.1771-.251.2461-.105.069-.228.1221-.361.1562a1.4223 1.4223 0 0 1-.414.0425ZM72.2201 203.015c-.2284-.009-.448-.068-.6308-.169-.1828-.102-.3208-.24-.3962-.4-.0755-.159-.0852-.331-.0278-.494.0574-.163.1792-.31.3501-.422.1708-.112.383-.184.6096-.207.2265-.023.4573.004.663.078.2057.074.377.191.4923.336.1153.146.1693.313.1552.481-.0077.112-.0454.221-.1109.321-.0655.101-.1575.191-.2706.265-.1131.074-.245.131-.3882.167a1.5431 1.5431 0 0 1-.4457.044ZM340.626 51.9788a.8546.8546 0 0 1-.255-.0451.6832.6832 0 0 1-.211-.1153.4856.4856 0 0 1-.133-.1669.3672.3672 0 0 1-.033-.1919c.013-.1299.093-.251.225-.3379.131-.0869.303-.1327.48-.1277a.8629.8629 0 0 1 .253.0476c.08.028.151.0672.209.1154.059.0483.104.1046.133.1657a.365.365 0 0 1 .037.1906.3872.3872 0 0 1-.061.1881.5346.5346 0 0 1-.157.1553.7424.7424 0 0 1-.226.0977.8805.8805 0 0 1-.261.0244Zm-74.701-20.8335a.8923.8923 0 0 1-.265-.0498.7051.7051 0 0 1-.219-.1216c-.061-.0509-.108-.1102-.137-.1746a.3783.3783 0 0 1-.035-.2001.4045.4045 0 0 1 .067-.1968c.04-.0617.096-.117.165-.1628a.7904.7904 0 0 1 .236-.1038.9432.9432 0 0 1 .273-.0291.9082.9082 0 0 1 .266.0498.7095.7095 0 0 1 .218.1217c.061.0508.108.1102.138.1745a.3879.3879 0 0 1 .034.2002.3961.3961 0 0 1-.064.1983c-.039.0623-.095.1181-.164.1641a.7712.7712 0 0 1-.239.1035.9251.9251 0 0 1-.274.0265Zm234.07 7.7801a1.592 1.592 0 0 1-.498-.0762c-.157-.051-.298-.1259-.413-.2198-.114-.0939-.201-.2046-.253-.3248a.6787.6787 0 0 1-.052-.373c.019-.2502.172-.4847.424-.6524.253-.1678.586-.2551.926-.2429.169.0069.335.0383.487.0924.153.0542.29.13.403.2232.113.0931.2.2018.255.3197.056.1179.08.2428.07.3675-.001.1256-.037.2496-.107.3641-.07.1145-.172.2169-.299.3005-.128.0836-.277.1465-.44.1847a1.6288 1.6288 0 0 1-.503.037Zm-145.391 19.419c-.177-.0092-.341-.0685-.459-.1654-.118-.0969-.18-.2238-.173-.3539.012-.129.093-.2493.225-.3347.132-.0855.304-.1292.48-.1219.086.0035.17.0194.248.0469.078.0276.148.0661.205.1135a.4817.4817 0 0 1 .131.1628c.028.06.04.1236.035.1872-.009.129-.087.2501-.217.3372-.129.0871-.3.1332-.475.1283ZM35.1126 29.2652c-.1882-.0092-.3638-.0726-.4889-.1765-.1251-.1039-.1896-.2399-.1796-.3786.0125-.1385.0986-.2679.2396-.36.141-.0922.3257-.1397.5139-.1324.1882.0092.3638.0727.4889.1765.1251.1039.1896.2399.1796.3786-.0125.1386-.0986.2679-.2396.3601-.141.0921-.3257.1397-.5139.1323ZM218 182.62c-.228-.009-.448-.068-.631-.169-.182-.101-.32-.24-.396-.399-.075-.159-.085-.331-.028-.494.058-.163.18-.31.35-.422.171-.112.383-.184.61-.208.227-.023.457.004.663.078.206.074.377.191.492.336.116.146.17.313.156.481-.008.112-.046.221-.111.321-.066.101-.158.191-.271.265-.113.074-.245.131-.388.167-.143.037-.295.052-.446.044ZM435.2 79.6166a1.4023 1.4023 0 0 1-.41-.0774c-.128-.0454-.243-.1091-.338-.1873-.095-.0781-.168-.1693-.215-.2683a.5962.5962 0 0 1-.058-.3085c.006-.1055.04-.209.101-.3045.061-.0956.148-.1812.254-.252.106-.0708.231-.1254.366-.1605.135-.0351.278-.0501.421-.044a1.42 1.42 0 0 1 .43.0819c.134.0487.253.1171.35.201.097.0839.169.1815.213.2868a.6086.6086 0 0 1 .04.3256c-.033.2041-.172.3911-.386.5226-.215.1315-.49.1976-.768.1846Zm-.912-32.9379a.7971.7971 0 0 1-.241-.0431.6306.6306 0 0 1-.199-.1095c-.056-.046-.099-.0998-.125-.1582a.3486.3486 0 0 1-.031-.1816c.013-.122.09-.2354.215-.3158.125-.0804.288-.1214.454-.114a.8015.8015 0 0 1 .238.0424c.075.0256.142.062.198.1071.055.045.098.0978.125.1551a.3517.3517 0 0 1 .035.1789.3777.3777 0 0 1-.062.1762c-.036.0552-.087.1046-.149.1454a.7151.7151 0 0 1-.213.0921.8474.8474 0 0 1-.245.025Zm-242.152-16.366c-.17-.0092-.329-.0666-.442-.1601-.113-.0936-.173-.2159-.166-.3412.012-.1244.091-.2401.218-.3222.127-.0821.294-.1239.462-.1165.169.0069.327.0624.441.1545.114.0922.174.2135.167.3379-.004.0623-.026.1234-.063.1796-.036.0563-.088.1067-.151.1483a.721.721 0 0 1-.217.0941.8611.8611 0 0 1-.249.0256Zm197.776 60.7905a1.5915 1.5915 0 0 1-.488-.0743c-.155-.0494-.293-.1218-.408-.2127-.114-.0909-.201-.1982-.256-.3153-.055-.117-.077-.2412-.063-.3646-.001-.1247.034-.2481.102-.3623.067-.1142.167-.2168.292-.3011.124-.0842.272-.1484.432-.1883.16-.04.33-.0548.499-.0436.168-.0004.334.0249.488.0743.155.0494.293.1218.407.2127.115.0909.202.1982.257.3153.055.117.077.2412.063.3646.001.1247-.034.2481-.102.3623-.068.1142-.167.2168-.292.3011-.124.0843-.272.1484-.432.1884-.16.0399-.33.0547-.499.0435Zm-241.933 2.7933a1.4648 1.4648 0 0 1-.435-.0818c-.136-.0483-.257-.1162-.357-.1997-.099-.0834-.175-.1807-.223-.2861a.6238.6238 0 0 1-.055-.3277c.008-.111.045-.2197.111-.3198.066-.1001.158-.1895.271-.2629.113-.0734.245-.1294.389-.1646.143-.0353.294-.049.444-.0405.151.0056.299.0334.435.0818.135.0483.257.1162.357.1997.099.0834.175.1807.223.2861a.624.624 0 0 1 .055.3277c-.008.111-.045.2197-.111.3198-.066.1001-.158.1895-.271.2629-.113.0734-.246.1294-.389.1647a1.5088 1.5088 0 0 1-.444.0404Zm497.443 53.8605a1.419 1.419 0 0 1-.429-.081c-.134-.049-.253-.118-.35-.201-.097-.084-.169-.182-.213-.287a.6107.6107 0 0 1-.041-.326c.01-.11.049-.217.115-.316.066-.098.159-.186.272-.258.114-.072.245-.126.388-.16.142-.033.292-.046.441-.036.153-.003.305.018.447.061.142.043.27.107.376.188.107.081.189.178.242.284.053.106.076.218.066.331-.009.113-.05.223-.12.323-.07.101-.168.189-.287.26-.119.071-.256.124-.404.153-.148.03-.302.037-.454.021l-.049.044Zm-275.455-44.711c-.15-.005-.298-.033-.433-.081-.135-.049-.256-.117-.354-.201-.099-.083-.174-.181-.22-.286a.6192.6192 0 0 1-.051-.327c.008-.111.046-.219.112-.319.065-.099.158-.188.271-.261.114-.072.246-.128.389-.162.143-.034.294-.047.444-.037.15.006.297.034.432.082.136.049.256.117.355.2.099.084.174.181.22.287.046.105.064.216.05.327-.007.11-.045.219-.111.318-.066.1-.158.189-.272.261-.113.073-.245.128-.388.162-.143.035-.294.047-.444.037Zm299.91 88.017c-.219-.014-.427-.076-.599-.177-.172-.101-.299-.238-.366-.392a.6208.6208 0 0 1-.012-.475c.06-.156.181-.295.347-.401.167-.106.372-.173.59-.193.219-.02.44.008.637.08.197.072.36.185.47.325.111.14.162.301.149.463-.01.11-.049.217-.115.316-.066.098-.159.186-.272.258-.114.072-.245.126-.388.16-.142.033-.292.046-.441.036Zm-414.125-46.179c-.337-.015-.652-.127-.877-.312-.224-.186-.34-.43-.32-.678.019-.248.171-.48.423-.646.252-.165.583-.25.92-.236.337.015.652.127.876.312.225.186.34.43.321.678-.019.248-.172.48-.424.646-.252.165-.582.25-.919.236Zm65.852 71.05c-.244-.001-.483-.056-.685-.158-.201-.103-.356-.247-.444-.416-.088-.168-.105-.352-.048-.528.056-.175.183-.334.364-.455.181-.122.408-.2.651-.225.242-.025.489.005.708.085.22.08.401.208.52.365.12.157.172.338.15.517-.028.224-.168.431-.393.582-.225.151-.518.234-.823.233Zm267.969 24.648c-.236-.013-.462-.075-.651-.181-.188-.105-.33-.249-.409-.413-.08-.165-.092-.342-.036-.512.056-.169.178-.323.351-.442s.389-.198.623-.228c.233-.029.473-.008.69.061.217.069.402.183.532.329.13.146.2.316.2.49.001.123-.033.245-.099.358-.067.113-.164.215-.286.299-.122.084-.266.148-.424.189a1.641 1.641 0 0 1-.491.05Zm157.448-37.71c-.215-.016-.419-.078-.587-.179-.168-.1-.292-.235-.357-.387a.6123.6123 0 0 1-.009-.468c.06-.154.179-.291.343-.395.164-.103.366-.17.58-.19.215-.02.433.006.627.076.195.071.357.181.467.318.11.138.163.296.152.455-.008.11-.046.218-.112.317-.065.1-.158.188-.272.26-.113.072-.246.126-.389.159-.143.033-.294.045-.443.034ZM647.513 85.5434a1.6013 1.6013 0 0 1-.486-.0736c-.153-.0489-.291-.1205-.405-.2104-.114-.0898-.202-.1961-.257-.312-.056-.116-.079-.2392-.067-.3619.007-.1193.047-.2361.117-.3438.07-.1077.169-.204.29-.2832.121-.0793.262-.1399.416-.1783.153-.0384.316-.0538.477-.0453.162.0057.321.0351.467.0866.146.0515.277.1241.384.2133.108.0893.19.1935.242.3065.052.113.073.2325.062.3516-.016.2327-.154.4518-.386.6106-.231.1588-.538.2449-.854.2399Zm-457.626-15.99c-.32-.0138-.62-.1205-.834-.2966-.214-.1761-.325-.4074-.309-.6434.019-.228.155-.4422.381-.5987.226-.1564.525-.2433.835-.2429.16.0068.316.0368.46.0883.144.0514.273.1233.379.2115.106.0881.187.1909.239.3023a.6693.6693 0 0 1 .064.3469c-.021.2264-.159.4384-.384.5929-.226.1546-.523.2403-.831.2397Zm54.841 239.0616c-.263-.011-.515-.08-.725-.197-.21-.118-.367-.279-.452-.462-.085-.184-.094-.382-.025-.569.068-.187.211-.355.41-.482.198-.128.444-.209.705-.232.262-.024.527.009.762.097.235.087.429.225.558.394.128.169.186.363.164.556-.03.253-.193.488-.454.655-.26.167-.598.253-.943.24ZM749.61 26.2033a1.487 1.487 0 0 1-.436-.0817c-.136-.0483-.258-.116-.359-.1993-.101-.0833-.178-.1805-.227-.286a.6497.6497 0 0 1-.06-.3283c.01-.1106.049-.2188.115-.3183.066-.0995.158-.1884.271-.2616.113-.0732.244-.1293.387-.1649.142-.0357.293-.0504.443-.0431.151.0057.299.0335.436.0817.136.0483.258.116.359.1993.101.0833.178.1805.227.286.049.1054.069.217.06.3283-.01.1106-.049.2188-.115.3183-.066.0995-.158.1884-.271.2616-.113.0732-.244.1293-.387.165a1.527 1.527 0 0 1-.443.043ZM514.495 176.282c-.16-.007-.316-.037-.46-.089-.144-.051-.273-.123-.379-.211-.106-.088-.187-.191-.239-.303a.6664.6664 0 0 1-.064-.346c.014-.177.1-.346.245-.487.146-.141.345-.247.572-.305.227-.057.472-.064.704-.019.233.045.442.139.601.272.159.132.262.296.295.472.033.175-.006.353-.111.513-.105.159-.271.292-.478.381-.208.09-.446.132-.686.122Zm-109.9 140.489c-.321-.014-.62-.12-.834-.296-.215-.176-.325-.408-.309-.644.01-.117.05-.233.12-.339.07-.106.168-.2.287-.279.12-.078.259-.138.411-.176.151-.039.311-.055.471-.047.32.013.62.12.834.296.214.176.325.408.308.644-.009.117-.05.232-.12.338-.07.107-.167.201-.287.28-.12.078-.259.138-.41.176-.151.038-.312.055-.471.047ZM697.334 31.5034a1.4614 1.4614 0 0 1-.434-.0818c-.136-.0484-.257-.1163-.357-.1997-.1-.0834-.176-.1807-.224-.2861a.6445.6445 0 0 1-.055-.3277c.033-.22.176-.4232.4-.5703.225-.1472.515-.2278.816-.2265.296.0264.569.1322.766.2974.198.1651.306.3779.303.5979-.007.1114-.045.2205-.111.321-.065.1006-.157.1905-.27.2647-.113.0741-.245.1309-.388.1672a1.5272 1.5272 0 0 1-.446.0439ZM490.478 238.37c-.16-.007-.316-.037-.46-.088-.144-.051-.273-.123-.379-.212-.106-.088-.187-.19-.24-.302a.689.689 0 0 1-.064-.347c.015-.176.101-.346.246-.487.146-.14.344-.246.572-.304.227-.058.472-.064.704-.019.233.044.442.139.601.271.159.133.262.297.295.472.032.176-.006.354-.111.513-.105.159-.271.292-.478.382-.208.089-.446.132-.686.121Zm-22.182-73.862c-.241-.009-.472-.071-.665-.177-.193-.107-.339-.254-.419-.421-.079-.168-.089-.349-.028-.521.06-.172.189-.327.37-.445.18-.118.405-.193.644-.217.239-.024.482.006.698.084.217.079.397.203.517.357.12.154.176.331.159.508-.022.234-.168.453-.406.609-.239.155-.551.236-.87.223Zm170.126 169.865c-.301-.023-.58-.127-.782-.292-.203-.166-.314-.381-.312-.604.087-.183.252-.341.472-.449.22-.108.481-.161.745-.15.264.011.515.085.717.211.201.126.341.297.399.487-.033.223-.179.429-.409.576-.229.148-.526.227-.83.221Z"/>
      </g>
      <g opacity=".6" fill="#fff">
        <path opacity=".6" d="M847.029 255.651c-.184-.005-.361-.051-.509-.131-.148-.08-.26-.191-.322-.318-.062-.128-.071-.266-.027-.397.045-.131.142-.249.279-.34.136-.09.306-.149.488-.167.182-.019.367.002.532.061.166.059.303.153.396.27.092.117.135.252.123.386-.006.089-.036.175-.088.255-.051.08-.124.151-.213.21a1.004 1.004 0 0 1-.307.134c-.113.029-.233.042-.352.037Zm-11.255-24.504c-.18-.009-.351-.057-.494-.137-.142-.081-.249-.191-.307-.316-.058-.125-.065-.26-.019-.388s.142-.243.277-.331c.134-.088.3-.145.478-.163.178-.018.36.002.522.06.161.057.297.148.388.262.092.114.136.245.127.377-.016.179-.127.346-.309.465-.182.119-.42.181-.663.171Zm38.724-110.542c-.23-.012-.445-.09-.597-.217-.153-.127-.231-.294-.218-.464a.5264.5264 0 0 1 .085-.244c.05-.076.12-.145.206-.201.085-.057.186-.1.294-.128.109-.028.224-.04.339-.035.115.004.227.026.33.062a.903.903 0 0 1 .271.152c.076.063.134.137.17.217.037.08.052.165.043.249-.006.085-.035.168-.084.244-.05.077-.12.145-.206.202-.086.056-.186.1-.295.128-.108.028-.223.04-.338.035Zm143.712 178.844c-.11-.005-.22-.026-.32-.062-.11-.036-.2-.087-.27-.15-.08-.062-.14-.135-.18-.214-.03-.078-.05-.162-.04-.246 0-.083.03-.165.08-.24.05-.075.12-.143.2-.198.09-.056.19-.099.29-.127.11-.027.23-.039.34-.034.11.003.22.023.33.059.1.036.19.087.27.149.08.063.13.136.17.216.04.079.05.163.04.247 0 .084-.03.165-.08.241-.05.075-.12.143-.2.198-.09.056-.19.099-.29.127-.11.027-.23.039-.34.034Zm-217.271 34.728c-.252-.011-.489-.096-.657-.235-.169-.139-.256-.321-.242-.508.014-.187.129-.363.32-.488.19-.125.44-.189.695-.179.254.011.493.096.663.236.169.14.257.324.242.512a.5616.5616 0 0 1-.096.267c-.055.084-.133.159-.228.22-.094.062-.205.109-.324.139-.12.03-.247.043-.373.036ZM1043.3 210.663c-.18-.008-.36-.054-.5-.135-.14-.08-.25-.19-.31-.315-.06-.126-.07-.262-.02-.391.04-.128.14-.244.27-.332.14-.089.31-.145.49-.163.18-.018.36.004.52.062.16.059.3.151.39.267.09.115.13.247.12.38-.02.176-.13.341-.31.459-.18.117-.41.177-.65.168Zm-7.15-134.1514c-.22-.0137-.43-.0904-.57-.2139-.15-.1236-.23-.2844-.22-.4486.01-.0812.04-.1607.08-.2339.05-.0732.12-.1387.2-.1928.08-.054.18-.0956.28-.1222.11-.0267.22-.0379.33-.0331.11.0035.22.0232.32.058.1.0349.19.0841.27.145.07.0608.13.132.16.2094.04.0773.06.1593.05.2412-.01.0824-.03.163-.08.2373s-.12.1408-.2.1957c-.09.0549-.18.0971-.29.1242-.1.0271-.22.0385-.33.0337ZM793.999 61.9542a1.101 1.101 0 0 1-.322-.0612.8848.8848 0 0 1-.266-.1474c-.074-.0616-.132-.1334-.168-.2113a.4698.4698 0 0 1-.046-.2427c.015-.1671.12-.3228.291-.4335.17-.1106.393-.1672.62-.1574.112.0046.222.0254.323.0612.1.0358.191.0859.265.1474.075.0616.132.1334.169.2113a.4799.4799 0 0 1 .046.2427.5051.5051 0 0 1-.085.2394c-.049.075-.118.1419-.203.1969a.9625.9625 0 0 1-.291.1235c-.107.0266-.22.0371-.333.0311ZM953.574 278.956c-.245-.014-.473-.097-.636-.233-.163-.135-.249-.312-.239-.492.012-.134.078-.262.189-.369.111-.106.262-.186.434-.23.172-.043.358-.048.534-.014.176.034.334.106.455.206.121.1.199.225.225.357.025.133-.004.269-.082.389-.079.121-.204.222-.361.291-.156.068-.337.101-.519.095Zm126.786-160.688c-.23-.011-.43-.087-.58-.211-.15-.124-.23-.286-.21-.451 0-.081.03-.161.08-.234.05-.073.11-.139.2-.193.08-.054.18-.096.28-.122.1-.027.21-.038.32-.033.12.003.22.023.33.058.1.035.19.084.26.145.08.06.13.132.17.209.04.077.05.159.05.241-.01.083-.04.163-.09.238-.05.074-.11.14-.2.195-.08.055-.18.097-.28.124-.11.028-.22.039-.33.034Zm-22.34-36.8233c-.49-.0186-.95-.1772-1.28-.4418-.33-.2646-.5-.6139-.49-.9728.02-.1796.08-.3556.18-.5178.11-.1622.26-.3075.44-.4274.18-.1198.39-.212.62-.271.23-.0591.48-.0839.72-.073.49.0208.95.1842 1.28.4544.33.2701.5.6251.47.987-.04.3546-.26.684-.63.9193-.36.2353-.83.3582-1.31.3431Zm-79.031 35.7583a1.2194 1.2194 0 0 1-.353-.066c-.11-.039-.209-.094-.291-.162-.081-.067-.143-.146-.183-.231a.5168.5168 0 0 1-.048-.266c.006-.091.037-.18.09-.262.053-.082.127-.155.218-.216.092-.06.199-.107.315-.138.116-.03.239-.043.362-.038.249.012.482.095.648.233.166.137.252.317.239.501-.008.091-.04.179-.094.261-.054.081-.13.154-.223.214-.092.06-.2.106-.317.135-.116.029-.24.041-.363.035Zm-92.118-54.3357c-.255-.0102-.505-.0576-.735-.1394-.23-.0818-.436-.1963-.605-.337-.17-.1407-.3-.3048-.383-.4827-.082-.1779-.117-.3662-.1-.5539.014-.1882.078-.3726.189-.5424.111-.1699.266-.322.457-.4476s.413-.2222.655-.2843c.241-.0621.497-.0885.753-.0776.515.0253.995.1995 1.337.4845.341.2851.516.658.486 1.0375-.031.3785-.265.7325-.65.9842-.385.2518-.89.3808-1.404.3587Zm131.389 13.2683a1.2017 1.2017 0 0 1-.35-.0653c-.11-.0387-.2-.0929-.29-.1595a.6743.6743 0 0 1-.18-.2289c-.04-.0843-.05-.1736-.04-.2625 0-.0894.03-.177.09-.2578.05-.0808.12-.1532.21-.2131.09-.0599.2-.1061.31-.1359.12-.0298.24-.0426.36-.0378.24.0138.47.0971.64.2324.16.1352.24.3119.23.4928 0 .0894-.03.1768-.09.2572-.05.0804-.13.1522-.22.2113-.09.059-.2.1042-.31.1329-.12.0287-.24.0403-.36.0342Zm17.78 33.6544c-.1-.004-.21-.023-.31-.056-.09-.034-.18-.081-.25-.139-.07-.059-.13-.127-.16-.201-.04-.074-.05-.153-.04-.231.01-.16.11-.31.27-.417.16-.107.37-.163.59-.156.21.012.41.084.56.203.14.119.22.274.21.433-.01.079-.04.156-.09.227-.04.071-.11.134-.19.187-.08.052-.17.092-.27.118-.1.026-.21.037-.32.032ZM830.803 306.808c-.13-.003-.257-.026-.374-.066-.117-.04-.222-.098-.309-.169-.086-.071-.152-.154-.193-.245a.5297.5297 0 0 1-.048-.281c.037-.178.163-.339.353-.453.19-.114.431-.171.675-.161.244.01.475.087.647.215.171.129.272.3.282.48-.006.095-.038.188-.094.274-.055.085-.133.162-.229.226-.097.063-.209.111-.331.143-.122.031-.251.043-.379.037ZM1041.99 88.0878c-.22-.0093-.41-.0793-.55-.1949-.14-.1157-.22-.2676-.21-.4229.01-.0764.03-.1513.08-.2201a.6842.6842 0 0 1 .19-.1812.972.972 0 0 1 .26-.1145c.1-.0249.21-.0352.31-.0303.21.0092.41.0793.55.1949.14.1156.21.2676.2.4229 0 .0764-.03.1512-.07.2201a.6842.6842 0 0 1-.19.1812.9113.9113 0 0 1-.27.1145c-.1.0248-.2.0351-.3.0303ZM969.557 153.82c-.207-.008-.41-.046-.597-.112-.186-.066-.354-.159-.492-.273-.138-.114-.243-.247-.311-.392-.068-.144-.096-.297-.082-.449.01-.153.062-.302.152-.44s.216-.261.371-.362c.154-.102.335-.18.531-.23.196-.049.404-.07.611-.06.409.025.789.167 1.057.397.269.229.404.527.377.829-.022.302-.204.585-.506.789-.302.204-.701.313-1.111.303Zm4.704 19.733c-.192-.009-.375-.06-.528-.146-.153-.086-.267-.204-.329-.338a.5345.5345 0 0 1-.02-.415c.049-.137.152-.26.296-.353.144-.094.323-.154.513-.173.191-.019.385.004.557.066.173.062.317.161.414.283.096.122.142.263.13.404-.018.189-.137.366-.33.491-.193.126-.446.191-.703.181Zm57.989-31.416c-.26-.014-.5-.101-.67-.243-.17-.142-.26-.328-.25-.518 0-.095.03-.188.09-.274.06-.086.13-.163.23-.226s.21-.112.33-.143c.12-.031.25-.044.38-.038.13.005.25.028.37.069.12.041.22.098.31.169.08.071.15.154.19.244.04.089.06.184.05.279-.02.19-.13.367-.33.494-.19.127-.44.194-.7.187Zm-54.695 211.907c-.303-.013-.593-.091-.835-.226s-.424-.319-.524-.53c-.099-.211-.111-.439-.035-.655.077-.216.239-.411.466-.559.226-.148.508-.243.808-.274.301-.03.606.006.879.104.272.098.499.253.652.446.153.193.224.415.206.638-.025.297-.21.576-.513.774-.303.198-.7.299-1.104.282Zm65.795-36.394c-.14.005-.28-.013-.41-.051a1.037 1.037 0 0 1-.35-.169c-.1-.074-.18-.162-.23-.259-.05-.097-.07-.2-.06-.304.01-.103.04-.204.11-.296.06-.093.15-.174.26-.239.11-.066.23-.114.37-.141.14-.027.28-.033.42-.018.14-.004.28.013.41.051.13.038.25.096.35.17.09.073.17.162.22.258.05.097.07.201.06.304 0 .103-.04.205-.1.297-.07.092-.16.174-.27.239-.1.065-.23.113-.37.14-.13.028-.27.034-.41.018ZM944.92 95.8679a1.02 1.02 0 0 1-.298-.0577c-.094-.0336-.178-.0804-.246-.1378-.069-.0574-.122-.1242-.156-.1967a.4345.4345 0 0 1-.041-.2256c.006-.0765.033-.1513.078-.2201a.6456.6456 0 0 1 .187-.1812.8909.8909 0 0 1 .267-.1145c.099-.0249.203-.0352.307-.0303.104.0034.206.0222.301.0553.094.0332.178.08.247.1376.07.0577.122.125.155.198.034.073.046.1501.038.2268-.004.0769-.03.1523-.075.2218-.045.0694-.109.1315-.187.1825a.866.866 0 0 1-.269.1141 1.0369 1.0369 0 0 1-.308.0278Zm84.38-1.3877c-.11-.0046-.21-.024-.3-.057a.8422.8422 0 0 1-.24-.1359c-.07-.0565-.12-.1224-.15-.1938-.04-.0713-.05-.1468-.04-.2221 0-.0761.03-.1507.07-.2195a.8125.8125 0 0 1 .18-.1813.912.912 0 0 1 .27-.1149c.1-.0249.2-.0353.3-.0304.11.0045.21.0239.3.057a.842.842 0 0 1 .24.1358c.07.0566.12.1224.15.1938.04.0714.05.1469.04.2222 0 .076-.03.1507-.07.2195a.8167.8167 0 0 1-.18.1813.9118.9118 0 0 1-.27.1148c-.1.025-.2.0353-.3.0305ZM917.172 105.734a1.8418 1.8418 0 0 1-.543-.104c-.17-.061-.322-.145-.447-.249-.125-.104-.222-.225-.283-.357-.062-.131-.088-.27-.076-.409.011-.139.059-.275.141-.4.082-.125.197-.237.338-.329.141-.093.306-.164.484-.209.179-.045.368-.064.556-.056.188.008.373.043.543.104.17.061.322.145.447.249.125.104.222.225.283.357.062.131.088.27.076.409-.011.139-.059.275-.141.4-.082.125-.197.237-.338.329-.142.093-.306.164-.484.209-.179.045-.368.064-.556.056Zm156.258-7.1891c-.26-.0138-.51-.1031-.68-.2488-.18-.1456-.27-.3359-.26-.5301.01-.0965.04-.1909.1-.2778a.8383.8383 0 0 1 .24-.2287c.1-.064.21-.1132.33-.1445.13-.0314.26-.0445.39-.0384.13.0045.26.0282.38.0695.11.0413.22.0995.31.1711.08.0717.15.1554.19.2462.05.0909.06.1871.06.2831-.02.1956-.14.3787-.34.5095-.2.1308-.46.1986-.72.1889ZM806.822 288.526c-.206-.009-.404-.063-.569-.155-.165-.091-.289-.217-.356-.361-.068-.144-.076-.299-.024-.446.052-.148.162-.28.316-.381.155-.102.346-.167.551-.188.204-.021.413.003.599.069.186.067.341.172.446.303.105.131.155.282.143.434-.019.204-.145.394-.352.529-.207.136-.478.206-.754.196Zm78.53-119.575a1.0794 1.0794 0 0 1-.313-.06c-.098-.035-.186-.084-.258-.144-.072-.059-.128-.129-.163-.205a.4547.4547 0 0 1-.044-.236c.013-.161.112-.312.276-.42.164-.107.38-.162.599-.153.219.01.424.083.57.204.146.121.221.279.208.441-.006.08-.034.158-.081.23a.6807.6807 0 0 1-.195.19.9347.9347 0 0 1-.279.12c-.103.027-.212.038-.32.033Zm-15.765 181.628c-.149-.007-.296-.035-.43-.084-.135-.049-.254-.117-.353-.2-.098-.084-.173-.18-.22-.285-.047-.105-.066-.216-.054-.326.019-.161.102-.314.239-.441.137-.126.321-.22.53-.27.208-.05.432-.053.644-.01.211.043.4.131.544.253.144.122.236.272.265.433.029.16-.007.323-.103.468-.096.145-.247.266-.436.349-.189.082-.407.121-.626.113Zm93.76-192.023c-.204-.02-.388-.097-.515-.216s-.187-.269-.166-.419c.013-.155.108-.299.266-.401.157-.103.363-.155.573-.145.209.009.405.08.544.195.139.116.21.268.197.422-.002.083-.028.163-.076.238-.048.074-.117.14-.202.193-.085.054-.184.093-.291.116-.107.023-.22.029-.33.017Zm-91.839 140.947c-.154.004-.307-.016-.449-.058-.143-.042-.272-.106-.379-.187-.108-.08-.191-.177-.245-.283-.054-.106-.078-.219-.069-.331.008-.113.048-.224.118-.325.07-.1.167-.19.286-.261.119-.072.256-.124.404-.155.148-.03.303-.037.455-.021.274.03.522.133.697.291.175.157.264.357.248.56-.015.204-.133.395-.33.538-.198.142-.46.225-.736.232Zm-36.269 25.453c-.228-.009-.448-.068-.631-.169-.183-.102-.321-.241-.396-.4-.076-.159-.085-.331-.028-.494.058-.163.179-.31.35-.422.171-.112.383-.184.61-.207.226-.023.457.004.663.078.206.073.377.19.492.336.115.145.169.313.155.481-.018.224-.157.434-.384.583-.228.149-.527.226-.831.214Zm-29.365-174.762c-.28-.013-.541-.107-.727-.261-.186-.154-.283-.356-.27-.562.008-.103.043-.203.103-.295.061-.092.145-.175.249-.243.104-.069.225-.121.357-.155.131-.033.27-.047.409-.041.139.005.275.031.401.076.125.044.237.107.33.183.092.077.164.166.209.263.046.096.065.199.057.301-.008.103-.043.203-.103.295-.061.093-.145.175-.249.243-.104.069-.225.121-.357.155-.131.033-.27.047-.409.041Zm249.716 35.642c-.16-.005-.3-.044-.42-.111s-.22-.159-.27-.264c-.05-.106-.06-.22-.02-.328.04-.109.12-.206.23-.281.12-.074.26-.122.41-.138.15-.015.3.002.44.051.14.049.25.127.33.223.07.097.11.208.1.32-.01.074-.03.146-.07.213-.05.066-.11.126-.18.175-.08.049-.16.087-.26.111-.09.024-.19.034-.29.029Zm-7.73-45.508c-.2-.009-.39-.075-.52-.184s-.2-.252-.19-.398c.01-.073.03-.144.07-.21.04-.066.1-.125.18-.175.07-.049.16-.087.25-.111.09-.025.19-.036.29-.032.2.009.39.077.52.187.14.111.21.256.2.404-.01.073-.03.144-.08.21-.04.065-.1.124-.18.172-.07.049-.16.086-.25.109-.1.024-.19.033-.29.028Zm-50.894 14.8c-.195-.01-.377-.075-.506-.182-.13-.108-.197-.248-.187-.391.006-.071.031-.14.074-.204.042-.063.101-.12.173-.166a.8354.8354 0 0 1 .248-.105.9556.9556 0 0 1 .283-.027c.096.004.189.021.276.051.087.03.165.073.229.125.064.053.114.114.146.18a.425.425 0 0 1 .042.208.428.428 0 0 1-.071.206c-.042.064-.1.122-.173.17a.8227.8227 0 0 1-.249.107c-.091.023-.189.032-.285.028Zm-125.628 77.263c-.165-.005-.323-.047-.455-.119s-.231-.172-.286-.286a.457.457 0 0 1-.021-.355c.041-.117.129-.223.252-.303.123-.08.275-.132.438-.148.163-.016.329.004.476.057.148.054.27.139.352.244.081.105.118.226.107.346a.4775.4775 0 0 1-.077.229c-.047.072-.112.136-.192.188a.895.895 0 0 1-.277.118c-.102.026-.21.035-.317.029ZM833.185 65.4279a.9547.9547 0 0 1-.281-.0517c-.088-.0306-.168-.0738-.233-.127a.5425.5425 0 0 1-.149-.1831.413.413 0 0 1-.042-.2112c.012-.1456.102-.2818.25-.379.148-.0972.342-.1476.54-.1402a.9536.9536 0 0 1 .28.0549c.088.0318.166.076.23.13.065.0541.114.117.145.1851a.4134.4134 0 0 1 .038.2119.4308.4308 0 0 1-.071.2058c-.041.0645-.1.1222-.173.1697a.8204.8204 0 0 1-.248.1071.976.976 0 0 1-.286.0277Z"/>
        <path opacity=".6" d="M873.465 121.276c-.349-.027-.669-.152-.895-.348-.227-.197-.342-.451-.321-.708.037-.255.205-.49.469-.656.265-.167.606-.252.953-.239.337.022.649.137.877.321.227.184.352.424.351.672-.008.133-.051.263-.128.383-.076.12-.184.228-.318.317-.133.089-.289.158-.459.202-.17.044-.35.064-.529.056Zm113.084-23.7697a1.3653 1.3653 0 0 1-.403-.0769c-.126-.0451-.239-.1082-.332-.1857-.092-.0775-.163-.1678-.208-.2656a.5882.5882 0 0 1-.053-.3044c.007-.1024.042-.2026.103-.2949.06-.0923.145-.175.249-.2432.104-.0682.225-.1206.356-.1543.132-.0336.271-.0478.41-.0418.14.0046.277.0296.404.0736s.24.1062.334.1828c.094.0767.166.1663.213.2637a.5986.5986 0 0 1 .058.3036c-.008.1035-.044.2049-.105.2983-.061.0934-.146.1771-.251.2461-.105.069-.228.1221-.361.1562a1.4223 1.4223 0 0 1-.414.0425ZM888.22 245.015c-.228-.009-.448-.068-.631-.169-.183-.102-.32-.24-.396-.4-.075-.159-.085-.331-.028-.494.058-.163.18-.31.35-.422.171-.112.383-.184.61-.207.227-.023.457.004.663.078.206.074.377.191.492.336.116.146.17.313.155.481-.007.112-.045.221-.11.321-.066.101-.158.191-.271.265-.113.074-.245.131-.388.167-.143.036-.295.051-.446.044Zm-80.839-129.173a1.754 1.754 0 0 1-.514-.097c-.161-.057-.305-.137-.424-.235-.118-.098-.21-.213-.268-.337-.058-.125-.082-.256-.07-.388.007-.132.051-.261.128-.381.076-.12.185-.227.318-.315.134-.088.29-.156.459-.2.17-.043.35-.061.529-.053.362.017.701.138.943.337.241.2.365.462.345.729-.025.265-.19.512-.461.688-.271.176-.625.267-.985.252Zm43.732-44.5768c-.189-.0092-.364-.0726-.489-.1765-.125-.1039-.19-.2399-.18-.3786.013-.1385.099-.2679.24-.36.141-.0922.325-.1397.514-.1324.188.0092.363.0727.488.1765.126.1039.19.2399.18.3786-.012.1386-.098.2679-.24.3601-.141.0921-.325.1397-.513.1323ZM1034 224.62c-.23-.009-.45-.068-.63-.169s-.32-.24-.4-.399c-.07-.159-.08-.331-.02-.494.05-.163.17-.31.35-.422.17-.112.38-.184.61-.208.22-.023.45.004.66.078.2.074.38.191.49.336.12.146.17.313.16.481-.01.112-.05.221-.12.321-.06.101-.15.191-.27.265-.11.074-.24.131-.38.167-.15.037-.3.052-.45.044Zm-25.86-152.3073c-.17-.0092-.33-.0666-.45-.1601-.11-.0936-.17-.2159-.16-.3412.01-.1244.09-.2401.22-.3222.12-.0821.29-.1239.46-.1165.17.0069.33.0624.44.1545.11.0922.17.2135.17.3379-.01.0623-.03.1234-.07.1796-.03.0563-.08.1067-.15.1483-.06.0416-.14.0735-.22.0941a.8148.8148 0 0 1-.24.0256Zm-44.161 63.5843a1.4908 1.4908 0 0 1-.435-.082c-.136-.049-.257-.117-.357-.2-.099-.083-.175-.181-.223-.286-.048-.106-.067-.217-.055-.328.008-.111.045-.22.111-.32s.158-.189.271-.263c.113-.073.245-.129.389-.164.143-.035.294-.049.444-.041.151.006.299.034.435.082.135.049.257.116.357.2.099.083.175.181.223.286a.624.624 0 0 1 .055.328c-.008.111-.045.219-.111.32-.066.1-.158.189-.271.262-.113.074-.246.13-.389.165a1.533 1.533 0 0 1-.444.041Zm107.771 50.987c-.34-.015-.65-.127-.87-.312-.23-.186-.34-.43-.33-.678.02-.248.18-.48.43-.646.25-.165.58-.25.92-.236.33.015.65.127.87.312.23.186.34.43.32.678-.01.248-.17.48-.42.646-.25.165-.58.25-.92.236Zm-65.86-75.331c-.32-.013-.62-.12-.84-.296-.21-.176-.32-.408-.31-.644.02-.228.16-.442.39-.598.22-.157.52-.244.83-.243.16.007.32.037.46.088.14.052.27.123.38.212.1.088.19.19.24.302.05.111.07.229.06.347-.02.226-.16.438-.38.593-.23.154-.52.24-.83.239Zm-193.137-9.624c-.307-.016-.595-.117-.805-.283-.21-.167-.326-.385-.325-.612.021-.227.159-.439.385-.593.225-.155.522-.24.83-.24.308.016.595.117.805.284.21.166.326.384.326.611-.022.227-.159.439-.385.593-.226.155-.523.241-.831.24Zm-18.608 50.307c-.16-.007-.316-.037-.46-.089-.144-.051-.273-.123-.379-.211-.106-.088-.188-.191-.24-.302-.052-.112-.074-.23-.064-.347 0-.123.034-.244.099-.356.066-.112.162-.213.283-.297.12-.084.263-.149.419-.191.156-.041.322-.059.488-.052.166 0 .33.025.482.073.153.049.29.119.404.208.114.089.202.194.258.309.057.115.081.237.071.359.001.128-.034.254-.104.37-.07.116-.173.22-.302.305-.129.084-.28.148-.445.186-.165.038-.339.05-.51.035Zm266.585 198.379c-.27-.011-.52-.08-.73-.197-.21-.118-.36-.279-.45-.462-.08-.184-.09-.382-.02-.569.06-.187.21-.355.41-.482.19-.128.44-.209.7-.232.26-.024.53.009.76.097.24.087.43.225.56.394.13.169.19.363.17.556-.04.253-.2.488-.46.655-.26.167-.6.253-.94.24Z"/>
      </g>
      <path opacity=".6" d="M418.141 344.043a.764.764 0 0 1 .416.151c.12.091.211.215.26.357.05.142.056.296.018.442a.7571.7571 0 0 1-.231.377c-.113.1-.252.164-.402.185a.7629.7629 0 0 1-.436-.071.7653.7653 0 0 1-.324-.301.7694.7694 0 0 1-.101-.43.7594.7594 0 0 1 .8-.71Zm-282.57-28.39c.092.005.182.028.265.068.083.04.158.096.219.165.061.068.108.149.139.236a.704.704 0 0 1-.103.652.709.709 0 0 1-.329.239.7029.7029 0 0 1-.752-.195.711.711 0 0 1-.171-.369.701.701 0 0 1 .063-.401.691.691 0 0 1 .275-.299.6899.6899 0 0 1 .394-.096Zm34.11 25.23a.7193.7193 0 0 1 .639.481c.047.134.053.279.017.417a.7192.7192 0 0 1-.595.533.7246.7246 0 0 1-.413-.063.7142.7142 0 0 1-.308-.283.719.719 0 0 1-.1-.405.7158.7158 0 0 1 .07-.273.7165.7165 0 0 1 .169-.225.7244.7244 0 0 1 .242-.143c.09-.031.185-.045.279-.039Zm107.62-45.76c.14.01.273.061.384.146.11.086.193.202.238.335.045.132.049.275.013.41a.706.706 0 0 1-.216.349.7075.7075 0 0 1-.374.171.708.708 0 0 1-.707-.342.718.718 0 0 1-.098-.399c.013-.19.1-.366.242-.492a.7235.7235 0 0 1 .518-.178Zm178.75-38.75c.194.03.37.131.493.284.124.152.186.346.175.542a.796.796 0 0 1-.235.518.7958.7958 0 0 1-.523.226.7935.7935 0 0 1-.493-.284.794.794 0 0 1-.174-.542.7869.7869 0 0 1 .235-.518c.14-.138.326-.219.522-.226Zm-125.57 61.64c.153.008.299.061.421.153s.214.217.265.361c.05.145.056.3.018.448a.7654.7654 0 0 1-.234.382.7642.7642 0 0 1-.407.187.7659.7659 0 0 1-.442-.07.7725.7725 0 0 1-.328-.305.7743.7743 0 0 1-.103-.436.783.783 0 0 1 .26-.524.777.777 0 0 1 .55-.196Zm101.01-31.11c.161.008.315.064.443.16.129.096.226.228.28.379.053.152.06.315.02.471a.8148.8148 0 0 1-.244.402.8192.8192 0 0 1-.428.199.8098.8098 0 0 1-.465-.073.8104.8104 0 0 1-.346-.32.8176.8176 0 0 1-.11-.458c.013-.213.11-.413.269-.555a.806.806 0 0 1 .581-.205Zm-275.75 29.08c.109-.005.217.014.319.054.101.04.192.101.269.179.076.077.135.17.173.272.038.102.055.211.049.319a.8062.8062 0 0 1-.085.312.7852.7852 0 0 1-.492.397.7818.7818 0 0 1-.323.017.785.785 0 0 1-.587-.233.7857.7857 0 0 1-.174-.273.787.787 0 0 1-.048-.319.764.764 0 0 1 .085-.311.7758.7758 0 0 1 .492-.397.7779.7779 0 0 1 .322-.017Zm-12.44-49.41c.197.03.375.132.5.287a.8.8 0 0 1-.061 1.074.802.802 0 0 1-.529.229.8114.8114 0 0 1-.75-.85.7945.7945 0 0 1 .079-.299c.046-.093.11-.177.188-.246a.8028.8028 0 0 1 .267-.155.7926.7926 0 0 1 .306-.04Zm-32.32-50.48c.168.008.33.066.466.166.135.101.237.239.294.398.056.159.064.33.023.494a.8591.8591 0 0 1-.256.423.8537.8537 0 0 1-.448.209.845.845 0 0 1-.488-.075.856.856 0 0 1-.365-.335.8581.8581 0 0 1-.116-.48.8472.8472 0 0 1 .281-.583c.166-.15.385-.228.609-.217Zm458.9 55.94c.272.021.53.122.745.29.214.167.375.394.462.652.087.258.096.536.026.799-.069.263-.215.5-.417.681-.203.181-.455.299-.724.339-.27.039-.545-.001-.791-.116a1.3913 1.3913 0 0 1-.596-.533c-.143-.232-.214-.5-.205-.772.008-.188.053-.372.133-.541.08-.17.194-.322.333-.447.14-.125.304-.221.482-.281.177-.061.365-.085.552-.071Zm-259.13-37.89a1.2586 1.2586 0 0 1 1.085.856c.078.233.086.484.023.721s-.194.451-.376.615c-.183.164-.41.272-.652.308a1.255 1.255 0 0 1-.715-.1 1.2542 1.2542 0 0 1-.542-.475c-.131-.208-.198-.45-.193-.695.004-.173.043-.343.114-.5.072-.157.176-.297.304-.413.129-.115.279-.203.443-.257.164-.055.337-.075.509-.06Zm-54.13 40.65c.165.008.323.065.455.163.131.098.231.233.286.389.055.155.063.322.022.482a.8384.8384 0 0 1-.25.413.8368.8368 0 0 1-.438.203.8176.8176 0 0 1-.477-.074.8247.8247 0 0 1-.355-.327.8378.8378 0 0 1-.113-.469.8176.8176 0 0 1 .079-.314.8018.8018 0 0 1 .193-.258.8083.8083 0 0 1 .278-.164.8117.8117 0 0 1 .32-.044Zm-204.0098 35.29a.833.833 0 0 1 .4599.165.8397.8397 0 0 1 .0598 1.299.8368.8368 0 0 1-.4427.206.8372.8372 0 0 1-.4829-.074.8483.8483 0 0 1-.3595-.331.8417.8417 0 0 1-.1146-.475.826.826 0 0 1 .0792-.317.8171.8171 0 0 1 .1955-.262.8376.8376 0 0 1 .2815-.167.8282.8282 0 0 1 .3238-.044Zm125.2998 5.71a.847.847 0 0 1 .345.061c.11.044.209.111.292.195a.8548.8548 0 0 1 .239.643.8538.8538 0 0 1-.314.611.8497.8497 0 0 1-.312.16.8787.8787 0 0 1-.35.02.8507.8507 0 0 1-.533-.306.8444.8444 0 0 1-.188-.585.8474.8474 0 0 1 .256-.559.8437.8437 0 0 1 .565-.24Zm273.31-8.42c.228.013.442.116.594.287a.863.863 0 0 1 .216.623.858.858 0 0 1-.287.593.8638.8638 0 0 1-.623.217.8746.8746 0 0 1-.325-.085.8457.8457 0 0 1-.268-.203.8617.8617 0 0 1-.217-.622.8796.8796 0 0 1 .085-.326.8693.8693 0 0 1 .202-.268.866.866 0 0 1 .29-.17c.107-.037.22-.053.333-.046Zm-42.52-81.9c.18.016.352.085.493.198.141.112.246.265.301.437a.915.915 0 0 1 .01.531.9223.9223 0 0 1-.286.448.9227.9227 0 0 1-.485.215.9286.9286 0 0 1-.524-.089.9218.9218 0 0 1-.387-.363.9275.9275 0 0 1-.122-.517.9286.9286 0 0 1 .097-.351.9267.9267 0 0 1 .542-.466.9198.9198 0 0 1 .361-.043Zm-10.66 69.59c.177.018.345.087.483.199.139.113.241.263.294.433.054.17.056.351.007.523a.911.911 0 0 1-.282.44.914.914 0 0 1-.477.213.9098.9098 0 0 1-.516-.086.9074.9074 0 0 1-.384-.355.9114.9114 0 0 1-.125-.507.9109.9109 0 0 1 .092-.355c.054-.111.13-.209.224-.29a.908.908 0 0 1 .32-.178c.118-.037.241-.05.364-.037Zm29.8-28.43c.188.01.369.076.519.189.151.113.264.268.326.446.062.177.07.369.023.552a.9448.9448 0 0 1-.288.471.9454.9454 0 0 1-.502.231.9486.9486 0 0 1-.545-.086.9546.9546 0 0 1-.405-.376.9532.9532 0 0 1-.128-.537.951.951 0 0 1 .317-.651.9466.9466 0 0 1 .683-.239Zm144.59 43.07c.178.01.349.073.491.18.142.108.25.255.308.424.058.168.065.35.02.523a.8958.8958 0 0 1-.275.445.8927.8927 0 0 1-.475.218.8956.8956 0 0 1-.517-.084.9038.9038 0 0 1-.383-.357.905.905 0 0 1-.119-.509.9022.9022 0 0 1 .302-.616.9001.9001 0 0 1 .648-.224Zm41.15 35.01c.183.014.357.081.501.194a.93.93 0 0 1 .31.438c.058.174.064.36.016.537a.9274.9274 0 0 1-.284.456.9209.9209 0 0 1-.488.223.9223.9223 0 0 1-.53-.084.9261.9261 0 0 1-.396-.363.934.934 0 0 1-.129-.521c.008-.124.04-.245.094-.356a.966.966 0 0 1 .223-.292.9341.9341 0 0 1 .319-.184.938.938 0 0 1 .364-.048Zm-1.2-53.24c.286.028.549.165.736.383.186.218.281.5.264.787-.023.285-.157.551-.375.738-.217.187-.499.281-.785.262-.153.003-.305-.025-.447-.083a1.1164 1.1164 0 0 1-.376-.254c-.106-.11-.189-.241-.243-.384a1.1064 1.1064 0 0 1-.068-.449c.008-.153.048-.303.116-.439.069-.137.166-.258.283-.356.118-.097.255-.17.402-.212.147-.042.302-.054.453-.033l.04.04Zm-433.31 50.02c.202.001.398.062.564.177.166.114.293.276.366.464.072.188.086.393.039.589a.9945.9945 0 0 1-.3.509.997.997 0 0 1-.535.251.9955.9955 0 0 1-.583-.095c-.18-.09-.329-.232-.428-.407a1.0049 1.0049 0 0 1-.123-.578c.023-.25.138-.481.323-.65.185-.168.427-.261.677-.26Zm63.25-103.52c.216.012.424.089.597.22a1.092 1.092 0 0 1 .392 1.151c-.056.21-.174.397-.337.539-.164.142-.366.233-.581.259-.215.027-.433-.011-.626-.108a1.094 1.094 0 0 1-.459-.44 1.0934 1.0934 0 0 1-.136-.621c.026-.283.16-.545.374-.732.214-.186.493-.282.776-.268Zm-131.54-9.11c.198.01.388.079.547.197.159.119.279.282.344.469a.9977.9977 0 0 1-.276 1.077.9948.9948 0 0 1-.527.246c-.196.027-.396-.004-.574-.09a.9995.9995 0 0 1-.428-.394c-.1-.171-.147-.368-.136-.565.016-.264.135-.511.331-.687.197-.176.456-.267.719-.253Zm521.19-4.22c.315.04.603.198.805.442.202.244.304.556.285.873-.019.317-.157.614-.388.832-.23.218-.535.341-.852.343-.163-.009-.322-.05-.469-.121-.147-.071-.279-.17-.388-.291a1.261 1.261 0 0 1-.246-.418 1.2615 1.2615 0 0 1-.067-.48c.009-.165.05-.325.122-.474a1.2475 1.2475 0 0 1 .714-.638c.156-.055.32-.078.484-.068Zm-591.8497 91.79a.9956.9956 0 0 1 .5437.202 1.0008 1.0008 0 0 1 .3618 1.05.9999.9999 0 0 1-.3037.494 1.0008 1.0008 0 0 1-.5271.242.9935.9935 0 0 1-.5729-.091.9992.9992 0 0 1-.4261-.393 1.0012 1.0012 0 0 1-.0371-.943.9972.9972 0 0 1 .2362-.311.9927.9927 0 0 1 .3377-.198.9995.9995 0 0 1 .3875-.052Z" fill="#fff"/>
      <path d="m1634 276.857-66.21-27.905c-66.21-27.904-198.62-83.714-331.04-55.809-132.42 27.905-264.833 139.523-397.25 148.863-132.417 8.884-264.833-83.372-397.25-93.054-132.417-9.681-264.833 65.491-397.25 83.714-132.4167 18.224-264.833-18.223-397.25-65.149-132.417-46.469-264.833-102.279-397.25-102.279-132.417 0-264.83 55.809-397.25 102.279-132.42 46.926-264.83 83.373-397.25 120.959-132.42 37.585-264.83 74.032-397.25 27.904-132.42-46.128-264.83-177.109-397.25-204.672-132.42-28.247-264.83 46.925-397.25 93.053-132.42 46.129-264.83 65.491-397.25 74.375-132.42 9.339-264.83 9.339-397.25-55.81-132.42-64.693-264.83-195.674-397.25-223.237-132.42-28.2465-264.83 46.925-397.25 46.584-132.42.341-264.83-74.8305-397.25-27.905-132.42 46.47-264.83 213.898-397.25 269.707-132.42 55.81-264.83 0-397.25-55.809-132.42-55.81-264.83-111.619-397.25-120.958-132.42-8.884-264.83 27.562-397.25 37.244-132.42 9.681-264.83-9.682-397.25-27.905-132.42-18.224-264.83-37.586-397.25-65.149-132.42-28.246-264.83-64.6933-397.25-37.13-132.42 28.246-264.83 120.502-331.04 167.428l-66.21 46.47V-58h66.21l331.04.0001h794.5l397.25.0001h794.5l397.25.0001h794.5l397.25.0001h794.5l397.25.0001h794.5l397.25.0001h794.5l397.25.0001H45l397.25.0001h1125.54l66.21.0001V276.857Z" fill="url(#d)"/>
      <path style="mix-blend-mode:screen" d="M399.891 141.347c5.302-37.635-20.908-72.4429-58.544-77.7456-37.635-5.3027-72.443 20.908-77.746 58.5436-5.302 37.635 20.908 72.443 58.544 77.746 37.635 5.302 72.443-20.908 77.746-58.544Z" fill="url(#e)"/>
      <path d="m375.743 119.434 7.474-.814h.148c1.282 0 2.343-.419 3.182-1.258 12.481-12.827 20.72-20.424 24.716-22.792.394-.296.764-.444 1.11-.444.345 0 .616.0987.814.296 1.085.7893 1.628 1.3073 1.628 1.554 0 .1973-.074.37-.222.518-12.876 12.629-19.314 19.437-19.314 20.424 0 .247.197.37.592.37 2.96.049 4.588.222 4.884.518.296.296.74.493 1.332.592.789 0 1.998.296 3.626.888 1.628.543 2.442 1.283 2.442 2.22 0 .247-.124.419-.37.518-.198.049-1.16.197-2.886.444-1.727.247-3.947.543-6.66.888-2.714.345-4.884.617-6.512.814-1.579.197-2.689.37-3.33.518-.642.099-1.135.444-1.48 1.036-7.203 9.373-12.186 16.255-14.948 20.646-.099.543-.395.814-.888.814-.494 0-1.012-.469-1.554-1.406-.494-.937-.74-1.973-.74-3.108 0-2.861 2.935-8.017 8.806-15.466.345-.296.518-.543.518-.74 0-.099-.099-.148-.296-.148h-.37l-9.62 1.628c-.691 0-1.258.296-1.702.888-6.562 8.979-10.311 14.307-11.248 15.984-.148.592-.494.888-1.036.888-.494 0-1.11-.37-1.85-1.11-.74-.789-1.11-1.677-1.11-2.664 0-.987.641-2.787 1.924-5.402 1.332-2.664 2.713-4.859 4.144-6.586.246-.345.37-.617.37-.814 0-.197-.173-.296-.518-.296l-3.478-.148c-.839-.049-2.048-.789-3.626-2.22-1.53-1.48-2.294-2.787-2.294-3.922 0-.444.246-.666.74-.666 3.552.395 5.944.592 7.178.592 1.282 0 4.193-.395 8.732-1.184.444-.148 1.036-.641 1.776-1.48 14.898-15.491 23.26-23.236 25.086-23.236.296 0 .666.2467 1.11.74.493.4933.74.888.74 1.184 0 .2467-.099.4687-.296.666-10.114 11.051-15.565 17.045-16.354 17.982-.79.888-1.184 1.505-1.184 1.85 0 .296.271.444.814.444Zm47.11-10.064c.494 0 .814.099.962.296.691.839 1.036 1.529 1.036 2.072 0 .493-.148.937-.444 1.332-.296.345-.666.765-1.11 1.258-.394.444-1.233 1.085-2.516 1.924-1.233.789-2.442 1.184-3.626 1.184-.888-.148-1.332-.691-1.332-1.628 0-1.48.888-2.911 2.664-4.292 1.776-1.431 3.232-2.146 4.366-2.146Zm-17.76 29.156c-.394.691-.592 1.307-.592 1.85 0 .543.296.814.888.814.346 0 .938-.148 1.776-.444 9.226-4.835 18.254-10.533 27.084-17.094.444.345.666.765.666 1.258s-.246.962-.74 1.406c-.493.444-1.208 1.085-2.146 1.924-.888.839-2.614 2.343-5.18 4.514-2.565 2.171-4.958 4.144-7.178 5.92-5.821 4.687-10.113 7.449-12.876 8.288-.888.247-1.85.37-2.886.37-3.798 0-5.698-2.023-5.698-6.068 0-1.579.864-3.823 2.59-6.734 1.727-2.96 3.503-5.55 5.328-7.77 1.826-2.269 3.034-3.527 3.626-3.774.888-.543 1.85-.814 2.886-.814s2.023.197 2.96.592c.296.148.444.345.444.592s-.246.617-.74 1.11c-.444.493-1.159 1.258-2.146 2.294-.937 1.036-2.368 2.837-4.292 5.402-1.874 2.516-3.132 4.637-3.774 6.364Zm105.14-45.88c4.637 0 6.956 1.8007 6.956 5.402 0 3.305-2.393 8.091-7.178 14.356-4.736 6.265-10.237 12.383-16.502 18.352-7.4 7.055-13.912 12.432-19.536 16.132-.839.543-2.343 1.283-4.514 2.22-2.121.937-3.971 1.406-5.55 1.406-.839 0-2.491-.666-4.958-1.998-.493-.345-.74-.715-.74-1.11 0-.641.888-1.061 2.664-1.258 2.516-.247 6.783-2.59 12.802-7.03 6.019-4.489 12.013-9.472 17.982-14.948 5.969-5.476 11.248-10.804 15.836-15.984 4.588-5.18 6.882-8.584 6.882-10.212 0-.3947-.197-.592-.592-.592-2.467 0-6.66 1.6527-12.58 4.958-5.92 3.305-11.445 7.178-16.576 11.618-5.131 4.391-7.696 7.869-7.696 10.434 0 .099.074.148.222.148 1.233 0 3.897-1.529 7.992-4.588 4.144-3.059 7.129-5.624 8.954-7.696.493-.493.888-.74 1.184-.74.395.049.592.222.592.518 0 .296-.37 1.085-1.11 2.368-.691 1.233-1.702 2.713-3.034 4.44-1.283 1.727-2.713 3.429-4.292 5.106-1.579 1.628-3.355 3.034-5.328 4.218-1.973 1.135-3.823 1.702-5.55 1.702-1.677 0-2.886-.691-3.626-2.072-.74-1.381-1.11-2.787-1.11-4.218 0-3.355 1.431-6.931 4.292-10.73 2.911-3.848 6.389-7.203 10.434-10.064 4.045-2.9107 8.263-5.328 12.654-7.252 4.391-1.924 8.066-2.886 11.026-2.886Zm12.415 9.546c1.825-2.5653 3.083-4.0947 3.774-4.588.74-.4933 1.899-.74 3.478-.74 1.578 0 2.368.6167 2.368 1.85 0 1.036-1.604 2.985-4.81 5.846-3.158 2.812-5.106 4.218-5.846 4.218-.395 0-.765-.123-1.11-.37-.346-.296-.518-.617-.518-.962 0-.937.888-2.689 2.664-5.254Zm35.373 39.22c0 .444.272.666.814.666.592 0 1.628-.345 3.108-1.036 1.53-.691 3.33-1.751 5.402-3.182 2.122-1.431 4.909-3.453 8.362-6.068 3.503-2.664 6.562-4.909 9.176-6.734.444.345.666.765.666 1.258s-.222.937-.666 1.332c-1.578 1.529-3.576 3.453-5.994 5.772-2.417 2.269-6.117 5.328-11.1 9.176-4.933 3.848-8.386 5.772-10.36 5.772-3.798 0-5.698-2.023-5.698-6.068 0-1.529.592-3.133 1.776-4.81l3.182-4.366c.296-.444.444-.691.444-.74 0-.099-.148-.025-.444.222-8.584 7.153-14.06 11.347-16.428 12.58-.394.247-.888.37-1.48.37-1.628 0-2.442-.74-2.442-2.22 0-.493.124-.937.37-1.332 2.862-4.144 5.057-6.931 6.586-8.362l1.258-1.258c.099-.099.148-.197.148-.296 0-.099-.049-.148-.148-.148-.098 0-.246.099-.444.296l-7.918 6.216c-4.588 3.601-7.104 5.525-7.548 5.772-.394.197-.764.296-1.11.296-.345 0-.888-.197-1.628-.592-.74-.444-1.11-.937-1.11-1.48 0-.148.074-.345.222-.592 4.835-5.328 8.362-9.719 10.582-13.172.938-1.48 1.752-2.787 2.442-3.922.74-1.184 1.308-2.023 1.702-2.516.444-.493.913-.74 1.406-.74.494 0 1.036.296 1.628.888.642.543.962 1.11.962 1.702 0 .592-.197 1.209-.592 1.85-1.677 3.009-2.984 4.958-3.922 5.846-.148.148-.222.296-.222.444 0 .099.05.148.148.148l.222-.074 9.916-6.882c2.516-1.727 4.021-2.59 4.514-2.59.494 0 1.012.173 1.554.518.592.296.888.641.888 1.036s-.123.789-.37 1.184l-4.81 6.586c-.641.789-.962 1.233-.962 1.332 0 .099.025.148.074.148l.37-.222c6.167-4.193 10.336-7.104 12.506-8.732 2.22-1.628 3.552-2.664 3.996-3.108.691-.493 1.258-.74 1.702-.74.494 0 .814.049.962.148l1.628 1.258c.494.247.74.567.74.962s-.098.715-.296.962c-2.91 3.157-5.254 5.673-7.03 7.548-1.726 1.875-2.984 3.256-3.774 4.144-1.282 1.529-2.072 2.763-2.368 3.7-.394.691-.592 1.307-.592 1.85Zm43.259-33.448c0-.74.493-1.381 1.48-1.924l8.658-3.404c.197-.099.469-.148.814-.148.395 0 .74.173 1.036.518.296.345.617.518.962.518s1.061-.123 2.146-.37c1.135-.296 2.639-.641 4.514-1.036 1.875-.444 3.971-.863 6.29-1.258 5.427-.9373 11.075-1.406 16.946-1.406 6.956 0 11.939.518 14.948 1.554 1.184.444 2.171 1.061 2.96 1.85.839.74 1.258 1.653 1.258 2.738 0 .641-.444.962-1.332.962-12.333.345-22.422 1.135-30.266 2.368-.789.099-1.184.37-1.184.814v.444c.049.099-.123.37-.518.814l-8.362 8.954c-.345.345-.518.617-.518.814 0 .148.049.222.148.222.148 0 .469-.049.962-.148 3.207-.197 6.167-.296 8.88-.296 2.713 0 4.267.148 4.662.444 2.171 1.628 3.429 2.689 3.774 3.182.395.493.592.888.592 1.184 0 .641-.543 1.036-1.628 1.184-13.024 1.283-20.054 1.924-21.09 1.924-1.036-.049-1.702-.074-1.998-.074-.789 0-1.677.617-2.664 1.85l-9.028 11.988c-.247.395-.37.691-.37.888 0 .148.099.222.296.222.197 0 .493-.099.888-.296 4.637-.74 8.954-1.11 12.95-1.11 4.045 0 7.055.123 9.028.37 2.713 0 5.624 1.998 8.732 5.994.247.345.37.666.37.962 0 .296-.37.444-1.11.444-12.284 0-21.633.247-28.046.74-.247.049-.567.074-.962.074-2.121 0-3.577-.493-4.366-1.48-.148-.296-.395-.444-.74-.444s-.641.173-.888.518c-.296.345-.518.518-.666.518-.148 0-.444-.148-.888-.444-.444-.296-.888-.814-1.332-1.554-.493-.691-.74-1.431-.74-2.22 0-.839.173-1.603.518-2.294.296-.691.715-1.579 1.258-2.664.493-1.085 1.628-2.935 3.404-5.55 1.825-2.664 3.725-4.933 5.698-6.808.247-.247.37-.469.37-.666 0-.247-.271-.37-.814-.37-.493 0-1.011-.173-1.554-.518-.493-.395-.74-.913-.74-1.554 0-.691.863-1.258 2.59-1.702l3.996-1.036h.074c.789 0 1.579-.518 2.368-1.554 5.723-5.575 9.225-8.683 10.508-9.324.444-.296.666-.518.666-.666 0-.197-.148-.296-.444-.296-.296 0-.543.025-.74.074-4.588.74-8.239 1.11-10.952 1.11-2.713 0-4.687-.123-5.92-.37-1.233-.247-2.146-.543-2.738-.888-1.283-.839-1.973-1.505-2.072-1.998l-.074-.37Zm42.488 24.198c2.714-1.875 5.55-3.897 8.51-6.068-1.578-1.085-2.59-2.146-3.034-3.182-.148-.345-.222-.592-.222-.74 0-.987.321-1.628.962-1.924.642-.345 1.678-.518 3.108-.518.543 0 2.146.666 4.81 1.998 2.664 1.332 4.342 1.998 5.032 1.998.74 0 1.752-.197 3.034-.592 1.283-.444 2.294-.666 3.034-.666.79 0 1.357.173 1.702.518 1.234 1.628 1.85 2.615 1.85 2.96 0 .345-.172.641-.518.888-.296.197-1.307.888-3.034 2.072-1.677 1.184-3.33 2.393-4.958 3.626-1.628 1.233-3.157 2.615-4.588 4.144-1.43 1.529-2.146 2.763-2.146 3.7 0 .148.124.222.37.222 2.664 0 11.643-5.402 26.936-16.206.346 0 .518.321.518.962 0 .592-1.948 2.713-5.846 6.364-3.897 3.601-8.312 7.153-13.246 10.656-4.884 3.453-8.436 5.18-10.656 5.18-3.453 0-5.18-1.727-5.18-5.18 0-1.875.617-3.675 1.85-5.402 1.283-1.776 3.947-4.144 7.992-7.104-.838 0-1.973-.197-3.404-.592-1.43-.444-2.343-.962-2.738-1.554-1.282 1.135-3.502 3.034-6.66 5.698-.74.543-1.702.814-2.886.814-1.184 0-1.776-.173-1.776-.518 0-.395.395-.913 1.184-1.554Zm58.389-22.792c.493 0 .814.099.962.296.691.839 1.036 1.529 1.036 2.072 0 .493-.148.937-.444 1.332-.296.345-.666.765-1.11 1.258-.395.444-1.233 1.085-2.516 1.924-1.233.789-2.442 1.184-3.626 1.184-.888-.148-1.332-.691-1.332-1.628 0-1.48.888-2.911 2.664-4.292 1.776-1.431 3.231-2.146 4.366-2.146Zm-17.76 29.156c-.395.691-.592 1.307-.592 1.85 0 .543.296.814.888.814.345 0 .937-.148 1.776-.444 9.225-4.835 18.253-10.533 27.084-17.094.444.345.666.765.666 1.258s-.247.962-.74 1.406c-.493.444-1.209 1.085-2.146 1.924-.888.839-2.615 2.343-5.18 4.514-2.565 2.171-4.958 4.144-7.178 5.92-5.821 4.687-10.113 7.449-12.876 8.288-.888.247-1.85.37-2.886.37-3.799 0-5.698-2.023-5.698-6.068 0-1.579.863-3.823 2.59-6.734 1.727-2.96 3.503-5.55 5.328-7.77 1.825-2.269 3.034-3.527 3.626-3.774.888-.543 1.85-.814 2.886-.814s2.023.197 2.96.592c.296.148.444.345.444.592s-.247.617-.74 1.11c-.444.493-1.159 1.258-2.146 2.294-.937 1.036-2.368 2.837-4.292 5.402-1.875 2.516-3.133 4.637-3.774 6.364Zm55.19-37.518c1.282 0 2.022.296 2.22.888 0 .197-1.234 1.603-3.7 4.218-2.418 2.565-5.772 6.117-10.064 10.656-4.243 4.489-7.894 8.485-10.952 11.988-.198.148-.296.345-.296.592s.049.37.148.37c.148 0 .32-.099.518-.296l2.812-2.22c2.022-1.283 4.242-2.417 6.66-3.404 2.466-.987 4.514-1.48 6.142-1.48.986.296 1.899.987 2.738 2.072.444.444.666.962.666 1.554 0 1.776-2.196 4.045-6.586 6.808-4.342 2.763-8.338 4.415-11.988 4.958-.05.049-.074.099-.074.148 0 .395 1.159 1.801 3.478 4.218 2.368 2.368 4.193 3.922 5.476 4.662 1.036.493 1.702.74 1.998.74.197.099.296.222.296.37s-.148.345-.444.592c-1.135.937-2.294 1.406-3.478 1.406-1.184 0-1.998-.049-2.442-.148-.395-.099-.79-.222-1.184-.37-.395-.148-.888-.543-1.48-1.184-.543-.592-1.11-1.209-1.702-1.85-.543-.592-1.456-1.628-2.738-3.108a114.462 114.462 0 0 0-3.996-4.514c-.198-.296-.42-.444-.666-.444-.247 0-.494.123-.74.37-3.059 2.319-5.082 4.884-6.068 7.696-.05.444-.346.666-.888.666h-.074c-2.023 0-3.38-1.085-4.07-3.256 0-.493.222-1.184.666-2.072 4.242-6.364 8.362-11.741 12.358-16.132 4.045-4.391 11.223-11.569 21.534-21.534.986-.789 1.628-1.307 1.924-1.554.296-.247.592-.469.888-.666.345-.247.616-.395.814-.444.394-.197.888-.296 1.48-.296h.814Zm-10.286 25.308c-.987.049-2.64.74-4.958 2.072-2.27 1.332-4.317 2.664-6.142 3.996l-2.664 1.924c-.198.197-.296.37-.296.518 0 .099.074.148.222.148 1.184 0 3.823-1.233 7.918-3.7 4.094-2.516 6.142-4.07 6.142-4.662l-.222-.296Z" fill="#BFC3E2"/>
    </g>
  </g>
  <defs>
    <linearGradient id="c" x1="-3133" y1="438" x2="-3133" y2="-57.9996" gradientUnits="userSpaceOnUse">
      <stop stop-color="#18171D"/>
      <stop offset="1" stop-color="#00152E"/>
    </linearGradient>
    <linearGradient id="d" x1="-3133" y1="438" x2="-3133" y2="-57.9996" gradientUnits="userSpaceOnUse">
      <stop stop-color="#232229"/>
      <stop offset="1" stop-color="#00152E" stop-opacity="0"/>
    </linearGradient>
    <radialGradient id="e" cx="0" cy="0" r="1" gradientUnits="userSpaceOnUse" gradientTransform="rotate(-1.724 4191.098 -11319.3115) scale(74.9605)">
      <stop offset=".83"/>
      <stop offset=".86" stop-color="#040404"/>
      <stop offset=".88" stop-color="#0F0F0F"/>
      <stop offset=".91" stop-color="#232323"/>
      <stop offset=".94" stop-color="#3E3E3E"/>
      <stop offset=".97" stop-color="#616161"/>
      <stop offset=".99" stop-color="#8C8C8C"/>
      <stop offset="1" stop-color="#999"/>
    </radialGradient>
    <clipPath id="a">
      <path fill="#fff" d="M0 0h1080v355H0z"/>
    </clipPath>
  </defs>
</svg>
